<svg width="24" height="24" viewBox="0 0 24 24" fill="none" xmlns="http://www.w3.org/2000/svg">
<path d="M2.63683 14.025C2.20315 13.9665 1.75858 13.7374 1.44658 13.4113C1.22027 13.1762 1.08096 12.9506 0.974834 12.6497C0.900959 12.4395 0.894958 12.391 0.894958 11.9972C0.894958 11.6031 0.900959 11.554 0.974834 11.3438C1.34833 10.2773 2.50352 9.70314 3.56327 10.0562C4.2049 10.2694 4.72408 10.8304 4.89996 11.4998C4.96446 11.7452 4.96502 12.216 4.90146 12.4791C4.65752 13.4841 3.66283 14.1628 2.63683 14.0252V14.025ZM3.31502 12.6497C3.58446 12.1106 3.80496 11.6573 3.80496 11.6419C3.80496 11.6243 3.67165 11.6132 3.46446 11.6132H3.12377V10.9841C3.12377 10.6376 3.1144 10.3637 3.10315 10.3748C3.06077 10.4173 2.08315 12.3385 2.09402 12.3589C2.09983 12.3707 2.25733 12.3801 2.44333 12.3801H2.78252V13.0048C2.78252 13.3483 2.7919 13.6296 2.80446 13.6296C2.81627 13.6296 3.04633 13.1888 3.31502 12.6497ZM9.53327 13.771C9.38458 13.7329 9.16915 13.6195 9.09452 13.5396C8.90552 13.3367 8.84477 12.8863 8.97152 12.6248C9.08215 12.3947 9.3319 12.2417 9.69508 12.1795C9.88033 12.1472 10.2364 12.1568 10.4282 12.1993C10.5051 12.2162 10.5058 12.214 10.5058 12.0784C10.5058 11.7883 10.4083 11.5958 10.213 11.494C10.1126 11.4418 10.0517 11.4332 9.82483 11.4368C9.67596 11.4398 9.4819 11.4595 9.39265 11.4806L9.23065 11.5202L9.21246 11.3891C9.17721 11.1394 9.17365 11.1497 9.3274 11.1079C9.40577 11.0867 9.62402 11.0625 9.81227 11.0537C10.0855 11.0413 10.188 11.0479 10.3213 11.0867C10.6575 11.1848 10.8508 11.3942 10.9232 11.74C10.9476 11.8571 10.9592 12.1956 10.96 12.8093L10.9607 13.708L10.7402 13.7417C10.4488 13.7863 9.66808 13.8055 9.53327 13.771V13.771ZM10.374 13.4128L10.5058 13.3946V12.9881C10.5058 12.7061 10.4957 12.5756 10.4721 12.5618C10.4539 12.5501 10.3095 12.5348 10.1507 12.528C9.78227 12.5111 9.58596 12.5625 9.45846 12.7075C9.38233 12.7939 9.37071 12.8299 9.37071 12.9647C9.37071 13.2188 9.44008 13.3103 9.69658 13.3909C9.82108 13.4303 10.1661 13.4415 10.374 13.4128V13.4128ZM11.8022 13.744C11.6946 13.7153 11.5965 13.681 11.584 13.6678C11.5628 13.6457 11.62 13.3294 11.6507 13.2985C11.658 13.2913 11.7452 13.3148 11.844 13.3491C12.0857 13.434 12.6278 13.4443 12.7691 13.3667C12.8906 13.3007 12.9478 13.2115 12.9478 13.0905C12.9478 12.8796 12.7918 12.7543 12.252 12.5348C11.7649 12.3362 11.6096 12.1583 11.6096 11.7994C11.6096 11.4456 11.7964 11.209 12.1611 11.0978C12.3289 11.0471 12.405 11.0406 12.6606 11.0537C13.0056 11.0713 13.2606 11.1233 13.2606 11.1767C13.2606 11.2155 13.2011 11.5093 13.191 11.521C13.1873 11.5255 13.0847 11.5028 12.9623 11.4713C12.6994 11.4045 12.5237 11.3995 12.3385 11.4559C12.1378 11.5159 12.0673 11.5943 12.0673 11.7583C12.0673 11.9839 12.1583 12.055 12.7523 12.2951C13.1873 12.4703 13.3528 12.6308 13.4005 12.9229C13.4693 13.344 13.2641 13.6429 12.8276 13.7591C12.6071 13.8178 12.0454 13.8098 11.8022 13.744V13.744ZM14.5378 13.7563C14.3584 13.7006 14.2142 13.5703 14.1212 13.3806L14.0413 13.218V10.3513L14.1688 10.3301C14.2424 10.3185 14.3159 10.306 14.3891 10.2926L14.4814 10.2767V11.1021H15.4753V11.4713H14.4788L14.4876 12.2738C14.4949 13.0181 14.5 13.084 14.5541 13.1865C14.5864 13.2488 14.6554 13.3206 14.7094 13.3498C14.8406 13.4201 15.1431 13.4201 15.3437 13.3491L15.4946 13.2966L15.5378 13.4781C15.5788 13.6487 15.5788 13.6611 15.5305 13.6868C15.3283 13.7951 14.7855 13.8332 14.538 13.7563H14.5378ZM6.61596 11.9826V10.2225H8.74596V10.6195H7.09727L7.10533 11.1666L7.11265 11.713L7.84427 11.7203L8.57515 11.7283V12.1245H7.09877V13.7432H6.61615L6.61596 11.9826ZM15.7588 13.7286C15.7588 13.6963 16.281 12.2989 16.4751 11.8125C16.616 11.4622 16.7627 11.1143 16.9153 10.7689L17.1585 10.2225H17.3921C17.5905 10.2225 17.6288 10.2298 17.6419 10.2715C17.65 10.2994 17.7518 10.5321 17.8682 10.7901C18.1223 11.3556 18.4249 12.1106 18.7682 13.0356C18.9088 13.4143 19.0247 13.7293 19.0247 13.7344C19.0247 13.7402 18.9075 13.7419 18.7641 13.7374L18.5033 13.7286L18.345 13.2891L18.186 12.8488L17.3775 12.8408L16.5681 12.8335L16.4085 13.281L16.2495 13.7286L16.0041 13.7374C15.8695 13.7417 15.7588 13.7381 15.7588 13.7286V13.7286ZM18.0308 12.4292C18.0308 12.3377 17.4133 10.7901 17.3768 10.7901C17.3306 10.7901 16.7243 12.3098 16.7243 12.4249C16.7243 12.4586 16.8332 12.465 17.3775 12.465C17.8851 12.465 18.0308 12.457 18.0308 12.4294V12.4292ZM19.5358 12V10.2568L19.6283 10.2385C19.8274 10.1996 20.784 10.186 20.962 10.2203C21.3685 10.2964 21.6782 10.462 21.8299 10.6825C22.098 11.0728 22.054 11.7334 21.739 12.0491C21.4952 12.2929 21.1114 12.4058 20.4514 12.43L20.0186 12.4453V13.7432H19.5358V12ZM21.0161 11.9554C21.3553 11.8491 21.4995 11.6543 21.4995 11.302C21.4995 10.8163 21.1603 10.5923 20.4265 10.5915C20.2999 10.5915 20.1555 10.599 20.1071 10.6091L20.0186 10.6268V12.0476L20.433 12.027C20.7056 12.0139 20.9063 11.989 21.0161 11.9554V11.9554ZM22.659 11.9824V10.2225H23.1416V13.7432H22.659V11.9824Z" fill="#049688"/>
</svg>
