<svg width="24" height="24" viewBox="0 0 24 24" fill="none" xmlns="http://www.w3.org/2000/svg">
<path d="M2.1375 21.6788H1.54688V17.1038H4.21875V17.6682H2.1375V19.1719H4.02V19.7213H2.14125V21.6788H2.1375ZM5.235 17.7638C5.15438 17.8444 5.055 17.8838 4.94063 17.8838C4.82625 17.8838 4.725 17.8444 4.64625 17.7638C4.56563 17.6832 4.52625 17.5838 4.52625 17.4694C4.52625 17.355 4.56563 17.2538 4.64625 17.175C4.72688 17.0944 4.82625 17.055 4.94063 17.055C5.055 17.055 5.15625 17.0944 5.235 17.175C5.31375 17.2557 5.355 17.355 5.355 17.4694C5.355 17.5838 5.31375 17.6775 5.235 17.7638ZM5.235 21.6788H4.64625V18.5475H5.235V21.6788ZM6.46313 21.6788H5.87438V18.5475H6.43875V19.0575H6.46313C6.52313 18.8869 6.64313 18.7482 6.8325 18.6375C7.01813 18.5269 7.19813 18.4725 7.3725 18.4725C7.54688 18.4725 7.69313 18.4969 7.81125 18.5475L7.58625 19.0969C7.51125 19.0669 7.40625 19.0519 7.27125 19.0519C7.05563 19.0519 6.87188 19.1363 6.70688 19.3069C6.54188 19.4775 6.46125 19.6969 6.46125 19.9669V21.6788H6.46313ZM9.23063 21.7838C8.75625 21.7838 8.37188 21.6244 8.0775 21.3094C7.78313 20.9944 7.63313 20.595 7.63313 20.115C7.63313 19.6613 7.7775 19.2657 8.0625 18.9357C8.35313 18.6057 8.71688 18.4407 9.16688 18.4407C9.63188 18.4407 10.0013 18.5907 10.2806 18.8944C10.56 19.2 10.7006 19.6032 10.7006 20.1075L10.695 20.2182H8.22188C8.23688 20.5332 8.3475 20.7825 8.53688 20.9682C8.73188 21.1538 8.95688 21.2438 9.21563 21.2438C9.63563 21.2438 9.92438 21.0638 10.0744 20.7038L10.5994 20.9232C10.5 21.1688 10.3294 21.3675 10.095 21.5325C9.86063 21.6994 9.57 21.7838 9.23063 21.7838ZM10.0763 19.7363C10.0613 19.5563 9.98063 19.3857 9.83063 19.2263C9.68063 19.0669 9.45563 18.9807 9.15563 18.9807C8.93625 18.9807 8.75063 19.05 8.59125 19.185C8.43188 19.32 8.32125 19.5057 8.26125 19.7344L10.0763 19.7363V19.7363ZM12.7688 21.7838C12.5288 21.7838 12.315 21.7332 12.1238 21.6282C11.9344 21.5288 11.7938 21.3975 11.7 21.2438H11.6756V21.6788H11.1113V17.1038H11.7V18.5475L11.6756 18.9825H11.7C11.7956 18.8269 11.9344 18.7032 12.1238 18.5982C12.3131 18.4988 12.5288 18.4425 12.7688 18.4425C13.1738 18.4425 13.5225 18.6019 13.8188 18.9225C14.1131 19.2432 14.2575 19.6369 14.2575 20.1113C14.2575 20.5857 14.1131 20.9813 13.8188 21.3C13.5225 21.6244 13.1738 21.7838 12.7688 21.7838ZM12.6675 21.2457C12.9431 21.2457 13.1775 21.1407 13.3725 20.9363C13.5675 20.7319 13.6669 20.4563 13.6669 20.1169C13.6669 19.7775 13.5675 19.5019 13.3725 19.2975C13.1775 19.0932 12.9431 18.9882 12.6675 18.9882C12.3919 18.9882 12.1538 19.0875 11.9625 19.2938C11.7731 19.4982 11.6719 19.7738 11.6719 20.1188C11.6719 20.4638 11.7675 20.7375 11.9625 20.9438C12.1594 21.1444 12.3938 21.2457 12.6675 21.2457V21.2457ZM15.72 21.7838C15.3844 21.7838 15.1106 21.6882 14.8856 21.4932C14.6606 21.3038 14.55 21.0488 14.55 20.7338C14.55 20.3944 14.6794 20.1244 14.9438 19.9294C15.2081 19.7344 15.5325 19.6388 15.9225 19.6388C16.2675 19.6388 16.5525 19.7044 16.7719 19.8282V19.7382C16.7719 19.5075 16.6913 19.3238 16.5375 19.1832C16.3781 19.0425 16.1869 18.9732 15.9581 18.9732C15.7875 18.9732 15.6338 19.0125 15.4931 19.0932C15.3525 19.1738 15.2588 19.2825 15.2081 19.4288L14.6681 19.1982C14.7431 19.0088 14.8838 18.8382 15.0975 18.6788C15.3131 18.5194 15.5925 18.4388 15.9413 18.4388C16.3406 18.4388 16.6763 18.5532 16.9406 18.7894C17.205 19.0238 17.3344 19.3538 17.3344 19.7794V21.6769H16.77V21.2419H16.7456C16.515 21.6038 16.17 21.7838 15.72 21.7838V21.7838ZM15.8156 21.2457C16.0613 21.2457 16.2806 21.1557 16.4756 20.9757C16.6763 20.7957 16.7756 20.5819 16.7756 20.3307C16.6106 20.1957 16.3613 20.1263 16.0256 20.1263C15.7406 20.1263 15.5269 20.1863 15.3806 20.3119C15.2363 20.4375 15.1613 20.5819 15.1613 20.7469C15.1613 20.9025 15.2269 21.0225 15.3619 21.1125C15.495 21.2007 15.645 21.2457 15.8156 21.2457V21.2457ZM18.9731 21.7838C18.6225 21.7838 18.3338 21.6994 18.1088 21.5288C17.8862 21.3662 17.7135 21.1448 17.61 20.8894L18.135 20.67C18.3 21.0638 18.585 21.2588 18.9844 21.2588C19.17 21.2588 19.32 21.2194 19.4344 21.1388C19.5488 21.0582 19.6088 20.9494 19.6088 20.8182C19.6088 20.6138 19.4644 20.4732 19.1794 20.4038L18.5438 20.25C18.3431 20.1994 18.1538 20.1 17.9738 19.9594C17.7938 19.815 17.7038 19.6238 17.7038 19.38C17.7038 19.1044 17.8294 18.8813 18.0731 18.705C18.3188 18.5307 18.6075 18.4444 18.9469 18.4444C19.2225 18.4444 19.4719 18.51 19.6856 18.6338C19.905 18.7594 20.0606 18.9394 20.1506 19.1738L19.6406 19.3838C19.5263 19.1082 19.2863 18.9694 18.9263 18.9694C18.7519 18.9694 18.6056 19.005 18.4875 19.08C18.3675 19.155 18.3075 19.2507 18.3075 19.3744C18.3075 19.5544 18.4481 19.6744 18.7219 19.74L19.3406 19.8844C19.635 19.9538 19.8506 20.07 19.995 20.235C20.1356 20.4 20.205 20.5894 20.205 20.7994C20.205 21.0788 20.0906 21.3132 19.86 21.5044C19.6331 21.6938 19.3369 21.7838 18.9731 21.7838V21.7838ZM22.0463 21.7838C21.5719 21.7838 21.1875 21.6244 20.8931 21.3094C20.5988 20.9944 20.4488 20.595 20.4488 20.115C20.4488 19.6613 20.5931 19.2657 20.8781 18.9357C21.1688 18.6057 21.5325 18.4407 21.9825 18.4407C22.4475 18.4407 22.8169 18.5907 23.0963 18.8944C23.3756 19.2 23.5163 19.6032 23.5163 20.1075L23.5106 20.2182H21.0375C21.0525 20.5332 21.1631 20.7825 21.3525 20.9682C21.5475 21.1538 21.7725 21.2438 22.0313 21.2438C22.4513 21.2438 22.74 21.0638 22.89 20.7038L23.415 20.9232C23.3156 21.1688 23.145 21.3675 22.9106 21.5325C22.6744 21.6994 22.3856 21.7838 22.0463 21.7838V21.7838ZM22.89 19.7363C22.875 19.5563 22.7944 19.3857 22.6444 19.2263C22.4944 19.0669 22.2694 18.9807 21.9694 18.9807C21.75 18.9807 21.5644 19.05 21.405 19.185C21.2456 19.32 21.135 19.5057 21.075 19.7344L22.89 19.7363V19.7363ZM7.35938 11.1413L8.80125 1.90128C8.85188 1.58628 9.27375 1.51128 9.42188 1.7944L10.9706 4.69503L7.35938 11.1413ZM17.61 13.3857L16.2338 4.87503C16.1925 4.61065 15.8606 4.5019 15.6694 4.69315L7.00313 13.3857L11.8013 16.0782C12.0994 16.2432 12.4725 16.2432 12.7706 16.0782L17.61 13.3857ZM13.7138 5.96253L12.6038 3.8494C12.48 3.6094 12.1406 3.6094 12.015 3.8494L7.13438 12.5494L13.7138 5.96253Z" fill="#F58220"/>
</svg>
