<svg width="24" height="24" viewBox="0 0 24 24" fill="none" xmlns="http://www.w3.org/2000/svg">
<path d="M5.6625 8.60626H10.1812V8.96251H6.075V11.6625H9.9375V12.0188H6.075V14.9813H10.2375V15.3375H5.6625V8.60626ZM10.5938 8.60626H11.0812L13.2188 11.5688L15.375 8.60626L18.3375 4.85626L13.4625 11.8875L15.975 15.3375H15.4688L13.2 12.1875L10.9125 15.3375H10.425L12.9562 11.8875L10.5938 8.60626V8.60626ZM16.1625 8.96251V8.60626H21.3187V8.96251H18.9375V15.3375H18.525V8.96251H16.1625ZM0 8.60626H0.50625L7.66875 19.2563L4.70625 15.3375L0.43125 9.11251L0.4125 15.3375H0V8.60626ZM21.2812 14.8688C21.375 14.8688 21.4313 14.8125 21.4313 14.7188C21.4313 14.625 21.375 14.5688 21.2812 14.5688C21.1875 14.5688 21.1312 14.625 21.1312 14.7188C21.1312 14.8125 21.2062 14.8688 21.2812 14.8688ZM21.6937 14.475C21.6937 14.7188 21.8812 14.8875 22.1437 14.8875C22.425 14.8875 22.5938 14.7188 22.5938 14.4188V13.3875H22.3688V14.4188C22.3688 14.5875 22.2937 14.6625 22.1437 14.6625C22.0125 14.6625 21.9188 14.5875 21.9188 14.4563H21.6937V14.475ZM22.875 14.4563C22.8938 14.7188 23.1 14.8875 23.4375 14.8875C23.775 14.8875 24 14.7188 24 14.4375C24 14.2125 23.8688 14.1 23.5875 14.025L23.4188 13.9875C23.2313 13.95 23.1562 13.875 23.1562 13.7813C23.1562 13.65 23.2687 13.5563 23.4562 13.5563C23.625 13.5563 23.7375 13.6313 23.7562 13.7813H23.9813C23.9625 13.5375 23.7562 13.3688 23.4562 13.3688C23.1375 13.3688 22.9313 13.5375 22.9313 13.8C22.9313 14.0063 23.0438 14.1375 23.3063 14.1938L23.4938 14.2313C23.6813 14.2688 23.775 14.3438 23.775 14.4563C23.775 14.5875 23.6437 14.6813 23.4562 14.6813C23.2687 14.6813 23.1187 14.5875 23.1 14.4563H22.875V14.4563Z" fill="black"/>
</svg>
