<svg width="24" height="24" viewBox="0 0 24 24" fill="none" xmlns="http://www.w3.org/2000/svg">
<path d="M0.318726 18.4875C0.206226 18.4313 0.131226 18.3 0.131226 18.15C0.131226 17.925 0.299976 17.7563 0.524976 17.7563C0.599976 17.7563 0.674976 17.775 0.731226 17.8125C1.14373 18.0938 1.59373 18.225 1.98748 18.225C2.41873 18.225 2.66248 18.0375 2.66248 17.7563V17.7375C2.66248 17.4 2.19373 17.2875 1.68748 17.1375C1.04998 16.95 0.337476 16.6875 0.337476 15.8625V15.8438C0.337476 15.0188 1.01248 14.5313 1.87498 14.5313C2.34373 14.5313 2.81248 14.6625 3.24373 14.8875C3.37498 14.9625 3.48748 15.0938 3.48748 15.2625C3.48748 15.4875 3.29998 15.6563 3.07498 15.6563C2.99998 15.6563 2.94373 15.6375 2.86873 15.6C2.51248 15.4125 2.15623 15.3 1.85623 15.3C1.46248 15.3 1.25623 15.4875 1.25623 15.7313V15.75C1.25623 16.0688 1.72498 16.2 2.23123 16.3688C2.86873 16.5563 3.58123 16.8563 3.58123 17.625V17.6438C3.58123 18.5625 2.86873 19.0125 1.96873 19.0125C1.42498 19.0125 0.824976 18.8438 0.318726 18.4875M7.46248 16.7813C7.46248 15.9375 6.89998 15.3938 6.22498 15.3938C5.54998 15.3938 4.96873 15.9563 4.96873 16.7813V16.8C4.96873 17.625 5.54998 18.1875 6.22498 18.1875C6.89998 18.15 7.46248 17.625 7.46248 16.7813ZM4.01248 15.0375C4.01248 14.7563 4.21873 14.5313 4.49998 14.5313C4.78123 14.5313 5.00623 14.7563 5.00623 15.0375V15.3375C5.32498 14.8875 5.77498 14.5313 6.46873 14.5313C7.48123 14.5313 8.47498 15.3375 8.47498 16.7625V16.7813C8.47498 18.2063 7.49998 19.0125 6.46873 19.0125C5.75623 19.0125 5.30623 18.6563 5.00623 18.2625V19.7813C5.00623 20.0625 4.78123 20.2688 4.49998 20.2688C4.23748 20.2688 4.01248 20.0625 4.01248 19.7813V15.0375ZM8.88748 15.0188C8.88748 14.7375 9.09373 14.5125 9.37498 14.5125C9.65623 14.5125 9.88123 14.7375 9.88123 15.0188V15.2625C9.93748 14.8875 10.5375 14.5313 10.9687 14.5313C11.2875 14.5313 11.4562 14.7375 11.4562 15.0188C11.4562 15.2813 11.2875 15.45 11.0625 15.4875C10.35 15.6188 9.86248 16.2188 9.86248 17.0813V18.5063C9.86248 18.7688 9.63748 18.9938 9.35623 18.9938C9.09373 18.9938 8.86873 18.7875 8.86873 18.5063V15.0188M11.9062 15.0188C11.9062 14.7375 12.1312 14.5125 12.4125 14.5125C12.6937 14.5125 12.9187 14.7375 12.9187 15.0188V18.5063C12.9187 18.7875 12.6937 18.9938 12.4125 18.9938C12.1312 18.9938 11.9062 18.7875 11.9062 18.5063V15.0188ZM13.35 15.0375C13.35 14.7563 13.575 14.5313 13.8562 14.5313C14.1375 14.5313 14.3812 14.7563 14.3812 15.0375V15.2438C14.6625 14.85 15.0937 14.5313 15.7875 14.5313C16.8 14.5313 17.3812 15.1875 17.3812 16.1813V18.5063C17.3812 18.7875 17.1562 18.9938 16.875 18.9938C16.5937 18.9938 16.35 18.7875 16.35 18.5063V16.4813C16.35 15.8063 15.9937 15.4313 15.3937 15.4313C14.7937 15.4313 14.3812 15.825 14.3812 16.5V18.5063C14.3812 18.7875 14.1562 18.9938 13.8562 18.9938C13.575 18.9938 13.35 18.7875 13.35 18.5063V15.0375ZM19.9687 18.1688C19.275 18.1688 18.6937 17.6438 18.6937 16.7813V16.7625C18.6937 15.9188 19.275 15.375 19.9687 15.375C20.6625 15.375 21.2625 15.9375 21.2625 16.7625V16.7813C21.2625 17.6063 20.6625 18.1688 19.9687 18.1688ZM21.75 14.55C21.4687 14.55 21.2437 14.775 21.2437 15.0563V15.3563C20.9062 14.9063 20.4562 14.55 19.725 14.55C18.675 14.55 17.6625 15.3563 17.6625 16.8V16.8188C17.6625 18.2438 18.675 19.0688 19.725 19.0688C20.4562 19.0688 20.925 18.7125 21.2437 18.3188C21.1875 19.1063 20.7 19.5 19.8375 19.5C19.3312 19.5 18.8812 19.3688 18.4687 19.1625C18.4125 19.1438 18.3562 19.125 18.2812 19.125C18.0375 19.125 17.85 19.3125 17.85 19.5375C17.85 19.725 17.9625 19.8563 18.1312 19.9313C18.675 20.1938 19.2187 20.325 19.8562 20.325C20.6625 20.325 21.2812 20.1375 21.6937 19.7438C22.0687 19.3875 22.275 18.8438 22.275 18.1125V15.0375C22.2562 14.7563 22.0312 14.55 21.75 14.55ZM12.9187 13.3313C12.9187 13.5938 12.6937 13.8188 12.4125 13.8188C12.1312 13.8188 11.9062 13.5938 11.9062 13.3313C11.9062 13.0688 12.1312 12.8438 12.4125 12.8438C12.6937 12.8438 12.9187 13.0688 12.9187 13.3313ZM15.5437 10.0875C14.4375 11.55 12.0562 11.0625 10.5187 11.1188C10.5187 11.1188 10.2562 11.1375 9.97498 11.175C9.97498 11.175 10.0875 11.1375 10.2 11.0813C11.2687 10.725 11.775 10.65 12.4312 10.3125C13.65 9.69376 14.8687 8.36251 15.1125 6.97501C14.6437 8.30626 13.2375 9.45001 11.9437 9.91876C11.0625 10.2375 9.46873 10.5375 9.46873 10.5375L9.41248 10.5C8.32498 9.99376 8.28748 7.68751 10.275 6.95626C11.1375 6.63751 11.9625 6.80626 12.9 6.60001C13.8937 6.37501 15.0562 5.64376 15.525 4.68751C16.05 6.24376 16.6875 8.62501 15.5437 10.0875V10.0875ZM15.5625 4.23751C15.4312 4.53751 15.2625 4.81876 15.075 5.06251C14.25 4.23751 13.1062 3.73126 11.8312 3.73126C9.33748 3.73126 7.31248 5.71876 7.31248 8.13751C7.31248 9.41251 7.87498 10.5563 8.75623 11.3625L8.84998 11.4563C8.68123 11.325 8.66248 11.0813 8.79373 10.9313C8.92498 10.7625 9.16873 10.7438 9.33748 10.875C9.50623 11.0063 9.52498 11.25 9.39373 11.4C9.26248 11.5688 9.01873 11.5875 8.84998 11.4563L8.92498 11.5125C9.71248 12.15 10.725 12.5438 11.8312 12.5438C14.2125 12.5438 16.1625 10.725 16.3312 8.45626C16.4812 7.35001 16.1437 5.92501 15.5625 4.23751M23.4562 14.85H23.2875V15.075H23.4562C23.5125 15.075 23.5687 15.0375 23.5687 14.9625C23.5687 14.8875 23.5125 14.85 23.4562 14.85V14.85ZM23.55 15.4125L23.3812 15.15H23.2687V15.4125H23.175V14.775H23.4375C23.55 14.775 23.6437 14.85 23.6437 14.9625C23.6437 15.1125 23.5125 15.15 23.475 15.15L23.6437 15.4125H23.55ZM23.4 14.6063C23.1375 14.6063 22.9125 14.8125 22.9125 15.075C22.9125 15.3375 23.1375 15.5438 23.4 15.5438C23.6625 15.5438 23.8875 15.3375 23.8875 15.075C23.8875 14.8313 23.6625 14.6063 23.4 14.6063ZM23.4 15.6563C23.0812 15.6563 22.8187 15.4125 22.8187 15.0938C22.8187 14.775 23.0812 14.5313 23.4 14.5313C23.7187 14.5313 23.9812 14.775 23.9812 15.0938C23.9812 15.3938 23.7187 15.6563 23.4 15.6563Z" fill="#5FB832"/>
</svg>
