<?xml version="1.0" standalone="no"?>
<!DOCTYPE svg PUBLIC "-//W3C//DTD SVG 20010904//EN"
 "http://www.w3.org/TR/2001/REC-SVG-20010904/DTD/svg10.dtd">
<svg version="1.0" xmlns="http://www.w3.org/2000/svg"
 width="819.000000pt" height="819.000000pt" viewBox="0 0 819.000000 819.000000"
 preserveAspectRatio="xMidYMid meet">

<g transform="translate(0.000000,819.000000) scale(0.100000,-0.100000)"
fill="#000000" stroke="none">
<path d="M1689 4443 c-12 -26 -25 -59 -29 -73 -5 -14 -19 -54 -33 -90 -13 -36
-63 -168 -109 -295 -47 -126 -89 -238 -93 -247 -6 -16 1 -18 78 -18 80 0 86 1
93 23 3 12 15 46 26 75 l19 52 153 0 153 0 17 -47 c42 -115 28 -103 122 -103
46 0 84 1 84 3 0 1 -14 38 -31 82 -16 44 -45 121 -64 170 -18 50 -69 185 -113
300 l-80 210 -86 3 -86 3 -21 -48z m160 -288 c26 -66 46 -123 44 -127 -2 -5
-47 -8 -99 -8 -75 0 -94 3 -94 15 0 8 17 60 39 117 21 57 42 112 46 123 4 11
9 16 12 10 2 -5 25 -64 52 -130z"/>
<path d="M2300 4105 l0 -385 80 0 80 0 0 385 0 385 -80 0 -80 0 0 -385z"/>
<path d="M2640 4105 l0 -385 250 0 250 0 0 75 0 75 -170 0 -170 0 0 80 0 80
150 0 150 0 0 75 0 75 -150 0 -150 0 0 80 0 80 165 0 165 0 0 75 0 75 -245 0
-245 0 0 -385z"/>
<path d="M3298 4484 c-5 -4 -8 -178 -8 -386 l0 -378 85 0 85 0 0 130 0 130 50
0 c57 0 52 6 149 -167 l52 -93 85 0 c46 0 84 2 84 4 0 2 -34 63 -75 136 -41
73 -75 138 -75 144 1 6 15 20 32 31 46 29 86 92 100 155 15 75 -6 150 -62 212
-63 73 -95 81 -310 86 -102 2 -188 0 -192 -4z m373 -182 c21 -24 29 -42 29
-70 0 -69 -59 -102 -180 -102 l-65 0 3 106 3 106 90 -4 c88 -3 92 -4 120 -36z"/>
<path d="M3930 4482 c0 -6 34 -108 76 -228 42 -121 82 -237 89 -259 8 -22 32
-91 54 -153 23 -63 41 -116 41 -118 0 -2 45 -4 100 -4 55 0 100 2 100 4 0 2
20 61 45 132 25 71 73 210 107 309 33 99 71 209 84 244 13 35 24 68 24 73 0 5
-36 8 -82 6 l-81 -3 -29 -80 c-15 -44 -58 -170 -94 -280 -37 -110 -69 -202
-71 -204 -8 -10 -20 22 -108 286 l-93 278 -81 3 c-45 2 -81 -1 -81 -6z"/>
<path d="M4770 4105 l0 -385 80 0 80 0 -2 383 -3 382 -77 3 -78 3 0 -386z"/>
<path d="M5100 4105 l0 -385 250 0 250 0 0 75 0 75 -170 0 -170 0 0 80 0 80
150 0 150 0 0 75 0 75 -150 0 -150 0 0 80 0 80 160 0 160 0 0 75 0 75 -240 0
-240 0 0 -385z"/>
<path d="M5697 4483 c-2 -4 20 -96 49 -203 30 -107 60 -222 69 -255 8 -33 30
-114 48 -180 l33 -120 87 -3 86 -3 16 58 c9 32 22 78 30 103 7 25 25 90 40
145 14 55 33 120 41 144 8 25 14 53 14 63 0 10 4 18 9 18 7 0 151 -490 151
-517 0 -10 25 -13 90 -13 l89 0 12 43 c6 23 17 62 25 87 7 25 29 108 49 185
38 146 47 178 89 335 14 52 26 101 26 108 0 10 -19 12 -77 10 l-78 -3 -57
-225 c-31 -124 -62 -243 -69 -265 -11 -38 -12 -39 -20 -15 -4 14 -41 133 -82
265 l-75 240 -74 0 -73 0 -11 -45 c-7 -25 -24 -85 -39 -135 -15 -49 -43 -147
-63 -218 -20 -72 -39 -122 -43 -115 -4 7 -28 96 -54 198 -25 102 -54 214 -63
250 l-18 65 -76 3 c-42 2 -78 -1 -81 -5z"/>
</g>
</svg>
