<svg width="212" height="212" viewBox="0 0 212 212" fill="none" xmlns="http://www.w3.org/2000/svg">
<path d="M43.7202 96.9919C43.4096 97.6649 43.0731 98.5191 42.9696 98.8815C42.8401 99.2439 42.4777 100.279 42.1154 101.211C41.7788 102.143 40.4846 105.56 39.2939 108.847C38.0773 112.109 36.9901 115.008 36.8865 115.241C36.7312 115.655 36.9124 115.707 38.9056 115.707C40.9764 115.707 41.1317 115.681 41.3129 115.112C41.3906 114.801 41.7012 113.921 41.9859 113.17L42.4777 111.824H46.4382H50.3986L50.8387 113.041C51.9259 116.018 51.5635 115.707 53.9967 115.707C55.1874 115.707 56.171 115.681 56.171 115.629C56.171 115.603 55.8086 114.646 55.3686 113.507C54.9544 112.368 54.2038 110.375 53.7119 109.106C53.246 107.812 51.9259 104.317 50.7869 101.341L48.7161 95.9047L46.49 95.8271L44.2638 95.7494L43.7202 96.9919ZM47.8619 104.447C48.5349 106.155 49.0526 107.631 49.0008 107.734C48.9491 107.864 47.7842 107.941 46.4382 107.941C44.4968 107.941 44.005 107.864 44.005 107.553C44.005 107.346 44.445 106 45.0145 104.525C45.5581 103.049 46.1017 101.625 46.2052 101.341C46.3088 101.056 46.4382 100.926 46.5158 101.082C46.5676 101.211 47.163 102.738 47.8619 104.447Z" fill="#243647"/>
<path d="M59.5361 105.741V115.707H61.607H63.6778V105.741V95.7754H61.607H59.5361V105.741Z" fill="#243647"/>
<path d="M68.3372 105.741V115.707H74.8085H81.2798V113.766V111.824H76.8793H72.4788V109.753V107.683H76.3616H80.2444V105.741V103.8H76.3616H72.4788V101.729V99.6582H76.7499H81.0209V97.7168V95.7754H74.679H68.3372V105.741Z" fill="#243647"/>
<path d="M85.3697 95.9307C85.2403 96.0343 85.1626 100.538 85.1626 105.922V115.707H87.3628H89.5631V112.342V108.977H90.8573C92.3328 108.977 92.2034 108.822 94.7142 113.3L96.0603 115.707H98.2605C99.4512 115.707 100.435 115.655 100.435 115.603C100.435 115.552 99.5548 113.973 98.4935 112.083C97.4322 110.193 96.5521 108.511 96.5521 108.356C96.578 108.2 96.9404 107.838 97.3804 107.553C98.5711 106.803 99.6066 105.172 99.9689 103.541C100.357 101.6 99.8136 99.6582 98.3641 98.0533C96.7333 96.1637 95.905 95.9566 90.3396 95.8272C87.6994 95.7754 85.4732 95.8272 85.3697 95.9307ZM95.0249 100.642C95.5685 101.263 95.7755 101.729 95.7755 102.454C95.7755 104.24 94.2483 105.094 91.1162 105.094H89.4337L89.5113 102.35L89.589 99.6064L91.9186 99.71C94.1965 99.7876 94.3001 99.8135 95.0249 100.642Z" fill="#243647"/>
<path d="M101.729 95.9825C101.729 96.1378 102.609 98.7781 103.696 101.884C104.783 105.016 105.819 108.019 106 108.589C106.207 109.158 106.828 110.944 107.398 112.549C107.993 114.18 108.459 115.552 108.459 115.603C108.459 115.655 109.624 115.707 111.048 115.707C112.471 115.707 113.636 115.655 113.636 115.603C113.636 115.552 114.154 114.024 114.801 112.187C115.448 110.349 116.691 106.751 117.571 104.188C118.425 101.625 119.409 98.7781 119.745 97.8721C120.082 96.9661 120.366 96.1119 120.366 95.9825C120.366 95.8531 119.434 95.7754 118.244 95.8272L116.147 95.9048L115.396 97.9756C115.008 99.1146 113.895 102.376 112.963 105.224C112.005 108.071 111.177 110.452 111.125 110.504C110.918 110.763 110.608 109.935 108.33 103.101L105.922 95.9048L103.826 95.8272C102.661 95.7754 101.729 95.8531 101.729 95.9825Z" fill="#243647"/>
<path d="M123.473 105.741V115.707H125.543H127.614L127.563 105.793L127.485 95.9048L125.492 95.8272L123.473 95.7495V105.741Z" fill="#243647"/>
<path d="M132.015 105.741V115.707H138.486H144.957V113.766V111.824H140.557H136.156V109.753V107.683H140.039H143.922V105.741V103.8H140.039H136.156V101.729V99.6582H140.298H144.44V97.7168V95.7754H138.227H132.015V105.741Z" fill="#243647"/>
<path d="M147.468 95.9566C147.416 96.0601 147.986 98.4416 148.736 101.211C149.513 103.981 150.29 106.958 150.523 107.812C150.73 108.666 151.299 110.763 151.765 112.471L152.619 115.578L154.871 115.655L157.097 115.733L157.512 114.232C157.745 113.403 158.081 112.213 158.288 111.565C158.469 110.918 158.935 109.236 159.324 107.812C159.686 106.388 160.178 104.706 160.385 104.085C160.592 103.437 160.747 102.713 160.747 102.454C160.747 102.195 160.851 101.988 160.98 101.988C161.161 101.988 164.889 114.672 164.889 115.371C164.889 115.629 165.536 115.707 167.219 115.707H169.522L169.833 114.594C169.988 113.999 170.273 112.989 170.48 112.342C170.661 111.695 171.231 109.546 171.748 107.553C172.732 103.774 172.965 102.946 174.052 98.8816C174.415 97.5356 174.725 96.2672 174.725 96.086C174.725 95.8272 174.233 95.7754 172.732 95.8272L170.713 95.9048L169.238 101.729C168.435 104.939 167.633 108.019 167.452 108.589C167.167 109.572 167.141 109.598 166.934 108.977C166.83 108.614 165.873 105.534 164.811 102.117L162.87 95.9048H160.954H159.065L158.78 97.0697C158.599 97.7168 158.159 99.2699 157.77 100.564C157.382 101.833 156.657 104.369 156.14 106.207C155.622 108.071 155.13 109.365 155.027 109.184C154.923 109.003 154.302 106.699 153.629 104.059C152.982 101.418 152.231 98.5192 151.998 97.5874L151.532 95.9048L149.565 95.8272C148.478 95.7754 147.546 95.8531 147.468 95.9566Z" fill="#243647"/>
</svg>
