<svg width="64" height="64" viewBox="0 0 64 64" fill="none" xmlns="http://www.w3.org/2000/svg">
<path d="M31.1938 10.1561C29.3063 10.6874 28.3688 12.7311 29.2188 14.4749C29.4938 15.0374 30.1313 15.6624 30.65 15.8749L31 16.0249V18.4749V20.9311L25.675 20.9499L20.3438 20.9686L19.7313 21.1374C18.9938 21.3436 17.9813 21.8124 17.3563 22.2436C15.4188 23.5811 14.1875 25.9374 14.1875 28.2936V28.8124H13.375C12.7125 28.8124 12.5063 28.8374 12.2188 28.9436C11.7375 29.1249 11.2438 29.5936 10.9875 30.1124L10.7812 30.5311V34.0311V37.5311L10.9563 37.9061C11.1875 38.3999 11.6063 38.8249 12.0875 39.0374C12.4313 39.1936 12.55 39.2124 13.3313 39.2374L14.1875 39.2624V39.7436C14.1875 40.6811 14.4563 41.8686 14.875 42.7936C15.5563 44.2936 17.0625 45.7749 18.6125 46.4624C19.0813 46.6749 19.9688 46.9311 20.5813 47.0311L20.8125 47.0686V47.7999C20.8188 48.8999 21.05 49.2999 21.65 49.2374C21.9313 49.2061 22.3188 48.9686 24.2625 47.6811L25.1875 47.0686L34.3563 47.0499L43.5313 47.0311L44.1563 46.8624C45.85 46.4124 47.325 45.4311 48.3438 44.0686C49.2313 42.8874 49.7125 41.5311 49.7938 39.9811L49.8313 39.2499H50.4938C50.8875 39.2499 51.3125 39.2124 51.5313 39.1561C52.275 38.9624 52.9 38.3624 53.1313 37.6186C53.2438 37.2686 53.25 36.9936 53.25 34.0311C53.25 31.0874 53.2375 30.7936 53.1375 30.4499C52.9313 29.8061 52.4688 29.2686 51.8438 28.9686C51.6438 28.8749 51.4188 28.8436 50.7125 28.8249L49.8313 28.7999L49.7875 28.0436C49.7688 27.6249 49.7063 27.0811 49.6563 26.8436C49.0563 24.0374 47.0375 21.8999 44.2625 21.1374L43.6563 20.9686L38.3313 20.9499L33 20.9311V18.4811V16.0311L33.3938 15.8499C34.2063 15.4686 34.8938 14.5499 35.0625 13.6249C35.3188 12.2186 34.45 10.7186 33.1125 10.2499C32.5938 10.0686 31.6688 10.0249 31.1938 10.1561ZM43.725 23.1874C45.2875 23.5811 46.5938 24.7124 47.2563 26.2561C47.7 27.2811 47.6875 27.0311 47.6875 33.9936C47.6875 40.8499 47.6938 40.7311 47.3125 41.6561C46.7688 42.9499 45.5813 44.1311 44.35 44.5936C43.3 44.9874 44.2125 44.9624 31.9688 44.9499C23.9188 44.9436 20.75 44.9186 20.5 44.8686C18.7938 44.5186 17.3375 43.2811 16.6625 41.6061C16.2688 40.6311 16.2813 40.8374 16.2813 33.9061C16.2813 26.9061 16.2563 27.3186 16.7 26.2624C17.35 24.7061 18.8563 23.4436 20.45 23.1311C20.6 23.0999 25.7813 23.0749 31.975 23.0686C43.025 23.0624 43.2375 23.0624 43.725 23.1874Z" fill="#F9EA76"/>
<path d="M23.875 28.9124C22.6938 29.1624 21.6063 30.0374 21.0313 31.1874C20.7188 31.8187 20.6562 32.1312 20.6562 33C20.6625 33.6937 20.6813 33.8375 20.8375 34.2812C21.0688 34.95 21.3813 35.45 21.875 35.9375C22.6625 36.7187 23.4625 37.0625 24.625 37.1062C25.4625 37.1437 25.8938 37.0562 26.5938 36.7187C27.625 36.2187 28.3688 35.3437 28.7813 34.1562C28.9438 33.6937 28.9813 32.625 28.85 32.0562C28.3625 29.8562 26.1063 28.4312 23.875 28.9124ZM25.4563 31.5937C25.9938 31.8499 26.3375 32.4062 26.3313 33C26.325 34.0375 25.3563 34.7687 24.3688 34.475C23.9313 34.35 23.6125 34.0812 23.4063 33.6562C22.9688 32.7687 23.4 31.8124 24.375 31.4937C24.6188 31.4124 25.1938 31.4624 25.4563 31.5937Z" fill="#F9EA76"/>
<path d="M38.3376 28.9C36.3501 29.3563 34.9689 31.1625 35.0814 33.1813C35.1376 34.3125 35.6126 35.3188 36.4251 36.075C36.8564 36.4688 37.6251 36.8813 38.2189 37.0313C38.7064 37.1563 39.7189 37.15 40.2064 37.025C41.5564 36.675 42.6939 35.6 43.1564 34.2438C43.3126 33.7813 43.3376 33.625 43.3376 32.9688C43.3376 32.0938 43.2189 31.625 42.8001 30.9063C42.5001 30.3938 41.7939 29.6813 41.3001 29.3875C40.4564 28.8875 39.2564 28.6938 38.3376 28.9ZM39.9064 31.5875C41.1376 32.1688 41.1064 33.8313 39.8501 34.4125C38.6064 34.9938 37.2501 33.6313 37.8189 32.375C38.1876 31.5625 39.1126 31.2125 39.9064 31.5875Z" fill="#F9EA76"/>
</svg>
