<?xml version="1.0" standalone="no"?>
<!DOCTYPE svg PUBLIC "-//W3C//DTD SVG 20010904//EN"
 "http://www.w3.org/TR/2001/REC-SVG-20010904/DTD/svg10.dtd">
<svg version="1.0" xmlns="http://www.w3.org/2000/svg"
 width="819.000000pt" height="819.000000pt" viewBox="0 0 819.000000 819.000000"
 preserveAspectRatio="xMidYMid meet">

<g transform="translate(0.000000,819.000000) scale(0.100000,-0.100000)"
fill="#000000" stroke="none">
<path d="M3200 6331 c-130 -40 -226 -149 -251 -286 -6 -32 -9 -311 -7 -712 l3
-658 32 -66 c38 -76 110 -150 181 -182 46 -21 60 -22 470 -25 l422 -3 0 725 0
726 -294 0 c-354 0 -326 13 -326 -152 0 -60 3 -107 8 -107 4 1 85 1 180 0
l172 -1 0 -465 0 -465 -241 0 c-202 0 -247 3 -275 16 -66 32 -64 8 -64 691 0
474 3 624 13 643 7 13 28 35 46 47 34 23 35 23 407 23 l374 0 0 130 0 130
-412 -1 c-227 0 -424 -4 -438 -8z"/>
<path d="M4190 6216 l0 -125 358 -3 c323 -3 360 -5 390 -21 63 -34 62 -23 62
-698 0 -678 2 -662 -65 -693 -28 -14 -86 -16 -389 -16 l-356 0 0 -130 0 -130
378 0 c407 0 452 5 530 53 53 34 110 101 138 162 l25 53 -3 718 -3 719 -29 53
c-34 61 -95 120 -158 154 -43 23 -46 23 -460 26 l-418 3 0 -125z"/>
<path d="M4190 5309 l0 -541 198 4 c188 3 199 4 252 29 117 55 201 162 219
279 14 83 14 401 1 470 -22 116 -102 218 -212 270 l-63 30 -197 0 -198 0 0
-541z m320 316 c56 -7 99 -34 125 -77 18 -30 20 -51 20 -233 0 -190 -1 -202
-23 -236 -34 -56 -66 -72 -154 -77 l-78 -5 0 322 0 322 33 -5 c17 -3 52 -8 77
-11z"/>
<path d="M6125 4039 c-224 -29 -357 -275 -261 -484 29 -65 98 -134 163 -167
41 -19 63 -23 148 -23 85 0 107 4 149 24 148 73 227 249 181 406 -48 168 -203
267 -380 244z m140 -141 c31 -16 75 -60 93 -93 11 -20 16 -56 16 -107 1 -69
-2 -81 -30 -120 -42 -59 -95 -88 -166 -88 -93 0 -141 28 -180 104 -62 121 -7
273 113 311 46 15 118 11 154 -7z"/>
<path d="M1738 4026 c-219 -63 -309 -336 -175 -532 38 -56 109 -108 170 -125
102 -29 237 -7 322 51 l45 31 0 139 0 140 -136 0 -135 0 3 -52 3 -53 73 -3 72
-3 0 -49 c0 -45 -3 -51 -30 -65 -71 -36 -172 -27 -229 20 -101 86 -96 282 10
352 68 45 175 44 243 -2 l36 -25 35 48 34 47 -32 27 c-66 56 -214 81 -309 54z"/>
<path d="M5095 4034 c-63 -16 -92 -30 -125 -61 -48 -43 -67 -109 -50 -173 24
-89 60 -117 201 -157 52 -14 104 -35 117 -46 42 -39 24 -87 -44 -113 -40 -15
-52 -16 -97 -4 -29 7 -73 25 -99 41 -52 31 -53 31 -83 -40 -19 -43 -19 -44 0
-58 59 -45 108 -58 220 -58 126 0 167 15 219 79 25 30 31 48 34 100 8 118 -43
172 -208 223 -111 34 -130 47 -130 89 0 28 6 37 33 51 40 21 128 21 181 -2 50
-21 62 -15 77 36 12 38 11 43 -6 55 -11 8 -35 19 -55 24 -45 12 -159 20 -185
14z"/>
<path d="M2277 4023 c-4 -3 -7 -152 -7 -330 l0 -323 235 0 235 0 0 60 0 60
-160 0 -160 0 0 75 0 75 78 0 c42 0 101 3 130 6 l52 7 0 53 0 54 -130 0 -130
0 0 75 0 75 155 0 155 0 0 60 0 60 -223 0 c-123 0 -227 -3 -230 -7z"/>
<path d="M2900 3701 l0 -331 69 0 70 0 0 111 c0 61 1 112 3 113 2 1 30 0 64
-2 l60 -4 56 -106 56 -107 76 -3 c42 -2 76 1 76 5 0 4 -29 59 -64 122 l-64
113 40 36 c55 49 68 80 68 157 0 100 -39 164 -125 202 -32 13 -76 18 -212 21
l-173 4 0 -331z m335 185 c34 -22 48 -79 30 -122 -17 -41 -63 -57 -158 -52
l-69 3 1 93 c0 50 0 95 1 98 0 14 170 -4 195 -20z"/>
<path d="M3510 4016 c0 -7 13 -47 29 -87 41 -104 110 -281 167 -432 l48 -128
80 3 80 3 66 170 c157 401 180 461 180 473 0 8 -20 12 -69 12 l-68 0 -21 -57
c-11 -32 -39 -112 -62 -178 -41 -119 -74 -211 -90 -250 -6 -16 -9 -17 -14 -5
-3 8 -28 78 -56 155 -29 77 -68 184 -88 237 l-37 98 -72 0 c-55 0 -73 -3 -73
-14z"/>
<path d="M4393 4013 c-3 -10 -21 -56 -39 -103 -18 -47 -51 -134 -74 -195 -23
-60 -62 -161 -86 -223 -24 -62 -44 -115 -44 -118 0 -3 32 -4 72 -2 l71 3 25
68 25 67 133 0 133 0 21 -57 c11 -32 23 -64 25 -70 3 -9 28 -13 79 -13 l74 0
-35 88 c-80 202 -139 354 -177 457 l-41 110 -78 3 c-67 2 -78 0 -84 -15z m136
-273 c22 -63 41 -118 41 -122 0 -11 -178 -10 -184 0 -3 5 13 58 35 118 22 60
42 115 45 123 8 23 19 3 63 -119z"/>
<path d="M5547 4023 c-4 -3 -7 -152 -7 -330 l0 -323 70 0 70 0 0 330 0 330
-63 0 c-35 0 -67 -3 -70 -7z"/>
<path d="M2150 2841 l0 -331 160 0 c133 0 170 3 215 19 77 27 126 70 166 143
33 60 34 67 34 168 0 95 -3 110 -27 156 -15 28 -48 70 -73 92 -71 63 -114 74
-307 79 l-168 5 0 -331z m337 180 c25 -12 55 -39 70 -63 25 -36 28 -51 28
-123 0 -74 -3 -86 -29 -123 -38 -56 -99 -84 -192 -90 l-74 -5 0 218 0 218 78
-5 c52 -3 91 -12 119 -27z"/>
<path d="M3030 3139 c-70 -38 -97 -64 -140 -136 -34 -56 -35 -60 -35 -163 0
-92 3 -111 25 -154 14 -27 47 -71 74 -97 65 -65 131 -89 240 -89 75 0 90 3
154 36 123 61 182 158 182 298 0 102 -29 176 -95 241 -78 78 -122 95 -246 95
-97 0 -108 -2 -159 -31z m249 -109 c80 -40 117 -118 108 -223 -7 -81 -42 -131
-114 -164 -142 -65 -283 30 -283 192 1 128 79 214 198 215 33 0 67 -7 91 -20z"/>
<path d="M3670 2840 l0 -330 70 0 70 0 0 218 0 217 88 -162 87 -163 40 0 40 0
79 153 c44 83 85 161 93 172 11 16 13 -15 13 -208 l0 -227 65 0 65 0 0 330 0
330 -78 0 -78 0 -32 -62 c-38 -75 -160 -300 -166 -305 -2 -2 -48 79 -102 181
l-99 186 -77 0 -78 0 0 -330z"/>
<path d="M4560 2840 l0 -330 183 0 c180 0 184 0 238 28 62 31 95 74 105 137 8
59 -9 107 -56 149 l-40 36 26 27 c61 66 59 159 -4 226 -43 45 -105 57 -289 57
l-163 0 0 -330z m334 189 c32 -25 34 -64 4 -96 -19 -21 -30 -23 -110 -23 l-88
0 0 70 0 70 84 0 c69 0 88 -4 110 -21z m32 -264 c21 -28 18 -91 -6 -115 -17
-17 -33 -20 -120 -20 l-100 0 0 81 0 81 106 -4 c90 -3 108 -6 120 -23z"/>
<path d="M5387 3144 c-63 -32 -120 -91 -154 -156 -24 -47 -27 -64 -27 -148 0
-81 3 -103 24 -145 33 -67 93 -131 155 -163 72 -37 206 -43 286 -13 109 41
183 133 210 260 28 134 -47 288 -176 362 -47 27 -57 29 -160 28 -97 0 -116 -3
-158 -25z m249 -114 c25 -12 54 -38 70 -63 26 -38 29 -50 29 -129 0 -80 -2
-89 -30 -130 -36 -52 -102 -88 -161 -88 -56 0 -85 12 -133 55 -115 105 -82
307 60 364 42 17 120 12 165 -9z"/>
<path d="M1417 2184 c-4 -4 -7 -35 -7 -69 0 -47 -4 -66 -18 -78 -42 -38 -72
-4 -72 81 0 48 -3 62 -15 62 -12 0 -15 -14 -15 -68 0 -89 15 -112 75 -112 69
0 89 31 83 130 -3 50 -15 70 -31 54z"/>
<path d="M1510 2096 c0 -80 3 -96 15 -96 13 0 15 15 13 92 -2 62 -7 93 -15 96
-10 3 -13 -20 -13 -92z"/>
<path d="M1680 2095 l0 -95 49 0 c62 0 99 28 107 80 10 69 -37 110 -127 110
l-29 0 0 -95z m102 48 c39 -36 12 -113 -41 -113 -26 0 -26 1 -23 65 3 58 6 65
25 65 11 0 29 -7 39 -17z"/>
<path d="M1897 2183 c-4 -3 -7 -46 -7 -95 l0 -88 60 0 c47 0 60 3 60 15 0 11
-11 15 -40 15 -36 0 -40 3 -40 25 0 22 4 25 35 25 24 0 35 5 35 15 0 10 -11
15 -35 15 -31 0 -35 3 -35 25 0 23 4 25 40 25 43 0 54 14 18 24 -31 8 -83 8
-91 -1z"/>
<path d="M2088 2178 c-23 -18 -30 -51 -16 -71 7 -9 31 -23 53 -30 43 -15 51
-33 22 -51 -13 -8 -24 -7 -46 6 -24 13 -31 14 -35 3 -7 -20 21 -39 59 -39 43
0 77 29 73 62 -3 25 -9 31 -63 54 -44 19 -39 43 8 42 24 -1 37 3 37 11 0 26
-65 34 -92 13z"/>
<path d="M2383 2180 c-30 -12 -43 -41 -43 -93 0 -67 54 -105 120 -83 32 10 35
15 38 54 l3 42 -35 0 c-39 0 -49 -18 -16 -27 30 -8 20 -37 -13 -41 -57 -7 -87
56 -51 107 17 23 52 26 97 6 12 -5 17 -3 17 9 0 30 -70 45 -117 26z"/>
<path d="M2879 2171 c-19 -16 -21 -22 -13 -42 9 -19 7 -29 -9 -51 -19 -25 -19
-28 -4 -52 15 -23 23 -25 77 -23 52 1 59 4 54 19 -3 9 0 27 6 38 15 29 2 40
-16 15 -13 -18 -15 -18 -31 -2 -15 15 -15 19 3 52 19 36 19 37 0 51 -26 19
-39 18 -67 -5z m48 -17 c8 -21 -13 -42 -28 -27 -13 13 -5 43 11 43 6 0 13 -7
17 -16z m-1 -123 c-10 -16 -31 -14 -46 4 -10 12 -10 18 0 31 12 13 15 13 33
-4 11 -11 16 -25 13 -31z"/>
<path d="M3127 2183 c-4 -3 -7 -46 -7 -95 0 -81 2 -88 20 -88 17 0 20 7 20 40
0 39 1 40 35 40 24 0 35 5 35 15 0 10 -11 15 -35 15 -31 0 -35 3 -35 25 0 23
4 25 40 25 43 0 54 14 18 24 -31 8 -83 8 -91 -1z"/>
<path d="M3300 2112 c0 -93 16 -117 80 -117 52 0 68 17 75 81 8 63 0 104 -20
104 -12 0 -15 -15 -15 -68 0 -90 -26 -116 -70 -72 -16 16 -20 33 -20 85 0 51
-3 65 -15 65 -12 0 -15 -15 -15 -78z"/>
<path d="M3518 2095 l-3 -96 60 3 c67 3 78 21 15 26 l-40 3 0 80 c0 62 -3 79
-14 79 -12 0 -15 -21 -18 -95z"/>
<path d="M3697 2183 c-4 -3 -7 -46 -7 -95 l0 -88 60 0 c47 0 60 3 60 15 0 11
-12 15 -45 15 l-45 0 0 80 c0 73 -6 91 -23 73z"/>
<path d="M3866 2174 c-33 -33 -13 -72 50 -99 38 -16 42 -26 18 -46 -14 -11
-21 -10 -47 4 -24 14 -32 15 -38 5 -18 -29 46 -51 98 -34 24 8 39 45 29 71 -3
9 -26 24 -52 35 -53 23 -54 45 -1 45 41 0 58 12 37 25 -23 15 -77 12 -94 -6z"/>
<path d="M4042 2183 c-29 -6 -19 -23 14 -23 23 0 24 -2 24 -80 0 -73 2 -80 20
-80 18 0 20 7 20 80 0 79 0 80 25 80 14 0 25 4 25 9 0 18 -69 25 -128 14z"/>
<path d="M4251 2172 c-13 -25 -61 -152 -61 -163 0 -18 28 -8 33 11 4 16 14 20
46 20 30 0 43 -5 51 -20 6 -11 17 -20 25 -20 11 0 9 14 -11 68 -46 121 -62
142 -83 104z m38 -63 c14 -41 15 -39 -18 -39 -29 0 -29 1 -18 35 13 43 22 44
36 4z"/>
<path d="M4421 2164 c-23 -19 -31 -34 -31 -59 0 -73 31 -107 97 -107 32 0 73
24 73 44 0 11 -38 10 -45 -2 -9 -15 -52 -12 -69 6 -29 28 -31 63 -5 90 24 25
48 28 92 9 24 -10 23 21 -2 35 -34 18 -78 11 -110 -16z"/>
<path d="M4701 2155 c-21 -19 -41 -35 -45 -35 -3 0 -6 14 -6 30 0 20 -5 30
-15 30 -12 0 -15 -17 -15 -90 0 -73 3 -90 15 -90 11 0 15 11 15 42 l0 42 43
-42 c26 -26 52 -42 67 -42 22 0 21 4 -24 49 l-48 49 36 40 c20 21 36 42 36 46
0 15 -23 4 -59 -29z"/>
<path d="M4910 2094 l0 -94 46 0 c58 0 82 13 99 54 18 42 4 101 -27 117 -11 6
-43 13 -69 15 l-49 3 0 -95z m100 46 c40 -40 14 -110 -41 -110 l-29 0 0 65 c0
63 1 65 25 65 14 0 34 -9 45 -20z"/>
<path d="M5120 2095 l0 -95 65 0 c51 0 65 3 65 15 0 11 -12 15 -45 15 -41 0
-45 2 -45 25 0 22 4 25 35 25 24 0 35 5 35 15 0 10 -11 15 -35 15 -31 0 -35 3
-35 25 0 22 4 25 39 25 22 0 42 4 45 9 7 11 -28 21 -81 21 l-43 0 0 -95z"/>
<path d="M5300 2182 c0 -8 40 -128 55 -165 5 -11 16 -17 28 -15 14 2 27 23 48
78 34 91 37 115 11 101 -10 -5 -26 -35 -35 -65 -10 -31 -21 -56 -25 -56 -4 0
-18 29 -30 65 -14 38 -30 65 -38 65 -8 0 -14 -4 -14 -8z"/>
<path d="M5527 2183 c-4 -3 -7 -46 -7 -95 l0 -89 63 3 c71 3 80 21 12 26 -40
3 -45 6 -45 28 0 21 4 24 41 24 52 0 48 24 -4 28 -32 3 -37 7 -37 28 0 22 4
24 45 24 48 0 60 14 23 24 -31 8 -83 8 -91 -1z"/>
<path d="M5914 2180 c-31 -12 -54 -49 -54 -88 0 -72 67 -116 133 -88 41 17 57
41 57 90 0 48 -8 65 -41 81 -31 17 -63 18 -95 5z m86 -40 c27 -27 25 -66 -5
-96 -29 -29 -58 -26 -87 8 -23 27 -23 49 3 82 25 31 61 34 89 6z"/>
<path d="M6110 2096 c0 -79 3 -96 15 -96 10 0 15 10 15 30 0 27 3 30 33 30 48
0 77 24 77 64 0 43 -14 54 -83 62 l-57 7 0 -97z m99 50 c19 -23 2 -46 -35 -46
-31 0 -34 3 -34 30 0 26 3 30 29 30 16 0 34 -6 40 -14z"/>
<path d="M6307 2183 c-4 -3 -7 -46 -7 -95 l0 -88 65 0 c51 0 65 3 65 15 0 11
-12 15 -51 15 -43 0 -50 3 -45 16 3 9 6 20 6 25 0 5 16 9 35 9 24 0 35 5 35
15 0 10 -11 15 -35 15 -31 0 -35 3 -35 25 0 22 4 25 39 25 22 0 42 4 45 9 10
16 -102 29 -117 14z"/>
<path d="M6490 2095 c0 -78 3 -95 15 -95 10 0 15 10 15 30 0 25 4 30 24 30 17
0 27 -9 36 -30 8 -18 20 -30 31 -30 22 0 23 6 5 40 -12 21 -12 28 1 51 24 41
11 76 -35 88 -20 6 -49 11 -64 11 l-28 0 0 -95z m99 47 c13 -25 -4 -42 -41
-42 -24 0 -28 4 -28 30 0 27 3 30 30 30 18 0 33 -7 39 -18z"/>
<path d="M2257 2173 c-11 -11 -8 -161 4 -168 17 -11 23 2 27 65 6 84 -7 127
-31 103z"/>
<path d="M2577 2173 c-11 -10 -8 -161 3 -168 5 -3 10 22 12 62 l3 67 44 -67
c24 -37 47 -67 52 -67 5 0 9 41 9 90 0 53 -4 90 -10 90 -5 0 -10 -25 -10 -57
l0 -56 -41 56 c-39 56 -49 64 -62 50z"/>
<path d="M5700 2090 l0 -90 60 0 c47 0 60 3 60 15 0 11 -12 15 -45 15 l-45 0
0 75 c0 60 -3 75 -15 75 -12 0 -15 -17 -15 -90z"/>
</g>
</svg>
