<?xml version="1.0" standalone="no"?>
<!DOCTYPE svg PUBLIC "-//W3C//DTD SVG 20010904//EN"
 "http://www.w3.org/TR/2001/REC-SVG-20010904/DTD/svg10.dtd">
<svg version="1.0" xmlns="http://www.w3.org/2000/svg"
 width="819.000000pt" height="819.000000pt" viewBox="0 0 819.000000 819.000000"
 preserveAspectRatio="xMidYMid meet">

<g transform="translate(0.000000,819.000000) scale(0.100000,-0.100000)"
fill="#000000" stroke="none">
<path d="M4020 6664 c-96 -42 -141 -131 -119 -236 9 -41 21 -61 60 -98 l49
-47 0 -137 0 -136 -327 0 c-181 0 -354 -4 -386 -10 -149 -24 -295 -134 -362
-273 -30 -63 -37 -94 -47 -185 l-11 -110 -58 1 c-71 0 -138 -35 -163 -87 -24
-51 -24 -521 0 -572 25 -52 86 -84 162 -84 l62 0 0 -42 c1 -251 132 -442 355
-518 l50 -17 8 -54 c8 -64 34 -92 76 -83 14 4 80 33 146 65 l120 58 630 4
c601 3 633 4 691 24 76 25 158 79 217 142 79 84 121 190 133 337 l6 82 72 4
c81 4 124 27 153 81 26 49 33 489 8 553 -26 69 -72 98 -160 102 l-73 4 -7 87
c-19 231 -132 389 -334 464 -52 20 -80 21 -423 25 l-368 3 0 143 0 142 30 17
c35 21 76 87 85 138 26 143 -139 272 -275 213z m851 -838 c116 -27 208 -110
245 -218 16 -48 18 -98 17 -543 -1 -316 -5 -504 -12 -530 -30 -112 -130 -212
-236 -235 -35 -8 -283 -10 -820 -8 l-770 3 -57 28 c-62 30 -115 83 -150 149
l-23 43 -3 526 c-3 516 -2 528 19 580 41 105 118 173 229 203 77 21 1474 23
1561 2z"/>
<path d="M3545 5451 c-92 -24 -173 -94 -218 -189 -27 -57 -29 -70 -25 -140 6
-94 36 -159 103 -221 69 -64 114 -81 216 -81 103 0 164 25 229 96 62 68 84
123 85 219 0 68 -4 89 -28 136 -32 65 -100 132 -161 159 -48 22 -157 33 -201
21z m135 -236 c5 -3 17 -20 26 -37 42 -80 -42 -173 -126 -138 -80 33 -81 151
-2 183 34 14 72 11 102 -8z"/>
<path d="M4500 5451 c-89 -19 -182 -98 -222 -186 -32 -73 -31 -181 3 -255 36
-77 77 -121 151 -161 57 -30 71 -33 143 -33 67 0 88 4 133 27 112 59 173 153
180 279 4 70 1 84 -26 141 -35 77 -89 131 -160 164 -57 27 -144 37 -202 24z
m137 -238 c32 -21 48 -77 33 -114 -16 -37 -55 -69 -87 -69 -32 0 -80 26 -93
49 -13 26 -13 87 1 112 23 45 94 55 146 22z"/>
<path d="M1815 3613 c-49 -116 -244 -666 -239 -674 3 -5 36 -9 73 -9 l68 0 25
68 25 67 143 3 c79 1 147 -1 152 -6 4 -4 17 -33 27 -63 l19 -54 64 -6 c35 -3
70 -3 79 0 18 7 23 -8 -157 479 l-87 232 -88 0 -89 0 -15 -37z m158 -270 l47
-133 -101 0 c-92 0 -101 2 -94 18 4 9 24 65 45 124 38 106 49 132 55 126 1 -2
23 -63 48 -135z"/>
<path d="M2380 3289 l0 -362 38 7 c20 3 54 6 75 6 l37 0 0 355 0 355 -75 0
-75 0 0 -361z"/>
<path d="M2700 3290 l0 -360 233 2 232 3 3 68 3 67 -166 0 -165 0 0 43 c0 23
3 59 6 80 l7 37 138 0 139 0 0 65 0 65 -145 0 -145 0 0 44 c0 24 3 58 6 75 l7
31 153 0 154 0 0 70 0 70 -230 0 -230 0 0 -360z"/>
<path d="M3300 3297 l0 -354 31 -7 c54 -10 119 -7 120 7 1 6 2 62 3 122 l1
110 54 0 53 0 65 -117 64 -118 38 0 c21 0 51 -2 67 -5 63 -12 62 5 -11 136
l-68 123 24 15 c75 48 115 135 106 227 -8 73 -40 127 -105 172 l-54 37 -194 3
-194 3 0 -354z m365 188 c20 -19 25 -34 25 -75 0 -41 -5 -56 -25 -75 -22 -23
-32 -25 -117 -25 l-93 0 -1 100 0 100 93 0 c86 0 96 -2 118 -25z"/>
<path d="M3951 3508 c28 -79 68 -192 89 -253 105 -302 108 -310 132 -317 13
-3 53 -6 90 -7 56 -1 69 2 77 17 17 32 230 635 238 673 l6 29 -80 0 -79 0 -68
-212 c-105 -332 -114 -354 -120 -338 -3 8 -14 44 -25 80 -10 36 -47 155 -82
265 l-64 200 -82 3 -83 3 51 -143z"/>
<path d="M4690 3296 l0 -353 31 -7 c17 -3 51 -6 75 -6 l44 0 0 360 0 360 -75
0 -75 0 0 -354z"/>
<path d="M5000 3296 l0 -353 68 -6 c37 -4 142 -7 235 -7 l167 0 0 70 0 70
-160 0 -160 0 0 80 0 80 140 0 140 0 0 65 0 65 -140 0 -140 0 0 75 0 75 155 0
155 0 0 70 0 70 -230 0 -230 0 0 -354z"/>
<path d="M5560 3637 c0 -7 16 -69 35 -138 46 -161 155 -559 155 -566 0 -4 162
6 167 11 3 2 26 84 77 266 44 159 63 213 69 203 3 -5 15 -43 26 -84 57 -208
109 -390 114 -395 3 -3 41 -2 85 1 l79 7 38 137 c21 75 53 190 72 256 43 152
83 301 83 309 0 3 -36 6 -79 6 l-79 0 -22 -92 c-80 -345 -98 -413 -105 -406
-3 2 -34 112 -70 244 -36 131 -70 243 -74 247 -4 4 -39 7 -76 5 l-69 -3 -8
-35 c-11 -45 -103 -371 -122 -430 l-14 -45 -15 55 c-8 30 -37 146 -64 258
l-48 202 -77 0 c-57 0 -78 -3 -78 -13z"/>
<path d="M1602 2654 c-17 -12 -22 -24 -20 -47 2 -27 11 -36 47 -54 59 -30 67
-39 51 -58 -16 -20 -49 -19 -72 2 -15 13 -21 14 -31 4 -9 -10 -7 -16 12 -32
51 -42 136 -10 129 49 -2 21 -14 33 -53 53 -27 14 -51 33 -53 42 -5 25 27 33
58 15 28 -16 54 -11 42 8 -10 16 -48 34 -69 34 -10 0 -29 -7 -41 -16z"/>
<path d="M1794 2657 c-10 -28 1 -200 14 -205 9 -3 12 23 12 107 0 70 -4 111
-10 111 -6 0 -13 -6 -16 -13z"/>
<path d="M1902 2563 c2 -74 7 -108 16 -111 8 -3 12 13 13 55 1 96 11 105 42
39 15 -31 33 -56 42 -56 8 0 29 28 47 63 l33 62 3 -82 c2 -65 6 -83 17 -83 12
0 15 20 15 110 l0 110 -25 0 c-21 0 -29 -10 -54 -65 -16 -36 -32 -65 -36 -65
-3 0 -19 29 -35 65 -25 56 -33 65 -55 65 l-26 0 3 -107z"/>
<path d="M2214 2655 c-4 -8 -4 -49 -2 -91 3 -65 7 -79 27 -95 48 -39 116 -17
132 45 11 40 8 140 -4 152 -16 17 -27 -14 -27 -81 0 -77 -13 -105 -49 -105
-37 0 -51 32 -51 113 0 72 -12 100 -26 62z"/>
<path d="M2460 2561 l0 -111 60 0 c47 0 60 3 60 15 0 11 -12 15 -45 15 l-44 0
-3 92 c-2 62 -7 93 -15 96 -10 3 -13 -23 -13 -107z"/>
<path d="M2713 2658 c-6 -7 -15 -26 -20 -43 -6 -16 -22 -60 -36 -97 -24 -64
-25 -68 -8 -68 12 0 21 10 25 25 6 22 12 25 55 25 41 0 49 -3 59 -25 6 -14 18
-25 27 -25 8 0 15 2 15 4 0 2 -16 48 -36 102 -39 110 -57 132 -81 102z m40
-85 l17 -43 -35 0 c-39 0 -41 6 -20 57 17 41 16 42 38 -14z"/>
<path d="M2890 2560 l0 -110 53 0 c69 0 112 26 128 78 23 79 -39 142 -141 142
l-40 0 0 -110z m132 50 c43 -53 3 -130 -67 -130 l-35 0 0 81 0 82 42 -6 c27
-4 49 -14 60 -27z"/>
<path d="M3188 2655 c-31 -17 -58 -62 -58 -95 0 -29 26 -76 52 -94 37 -26 93
-20 130 13 29 26 33 35 33 80 0 41 -5 55 -26 77 -32 32 -93 41 -131 19z m103
-44 c16 -16 29 -36 29 -45 0 -28 -22 -64 -47 -75 -34 -16 -47 -14 -77 10 -46
36 -32 111 24 132 29 11 42 7 71 -22z"/>
<path d="M3420 2561 c0 -90 3 -111 14 -111 10 0 16 13 18 38 4 55 36 56 67 2
12 -22 29 -40 37 -40 18 0 18 4 -2 42 -15 29 -15 34 0 59 20 33 21 69 2 94
-10 13 -30 20 -75 23 l-61 4 0 -111z m94 69 c49 -18 26 -70 -31 -70 -31 0 -33
2 -33 33 0 49 13 57 64 37z"/>
<path d="M3740 2559 l0 -111 65 4 c74 5 111 30 121 83 14 78 -44 135 -141 135
l-45 0 0 -111z m129 58 c58 -48 17 -137 -64 -137 -24 0 -25 2 -25 81 l0 81 38
-7 c20 -4 43 -12 51 -18z"/>
<path d="M3990 2560 l0 -110 70 0 c56 0 70 3 70 15 0 11 -12 15 -50 15 l-50 0
0 35 c0 35 0 35 45 35 25 0 45 5 45 10 0 6 -20 10 -45 10 -45 0 -45 0 -45 35
l0 35 51 0 c36 0 49 4 47 13 -3 7 -29 13 -71 15 l-67 3 0 -111z"/>
<path d="M4290 2560 l0 -110 65 0 c50 0 65 3 65 14 0 11 -14 16 -47 18 -46 3
-48 4 -48 33 0 28 3 30 43 33 53 4 55 22 2 22 -37 0 -40 2 -40 29 0 32 14 41
62 41 19 0 28 4 26 13 -3 7 -28 13 -66 15 l-62 3 0 -111z"/>
<path d="M4500 2560 c0 -90 3 -110 15 -110 11 0 15 18 17 78 l3 77 53 -77 c73
-107 82 -104 82 26 0 120 -15 149 -25 49 -4 -38 -7 -72 -9 -77 -1 -4 -21 19
-44 53 -48 68 -69 91 -83 91 -5 0 -9 -49 -9 -110z"/>
<path d="M4740 2655 c0 -9 9 -15 25 -15 25 0 25 0 25 -95 0 -88 1 -95 20 -95
19 0 20 7 20 96 0 90 1 96 19 91 24 -6 46 7 37 22 -4 6 -36 11 -77 11 -55 0
-69 -3 -69 -15z"/>
<path d="M4950 2560 c0 -91 3 -110 15 -110 11 0 15 11 15 40 0 36 3 40 25 40
19 0 29 -10 45 -40 14 -27 27 -40 41 -40 20 0 20 0 -1 39 -21 36 -21 40 -5 64
9 15 15 40 13 59 -4 40 -34 58 -100 58 l-48 0 0 -110z m101 70 c41 -23 16 -70
-38 -70 -31 0 -33 2 -33 34 0 43 29 58 71 36z"/>
<path d="M5180 2560 l0 -111 63 3 c71 3 80 21 12 26 -44 3 -45 4 -45 38 0 34
0 34 46 34 27 0 43 4 39 10 -3 6 -24 10 -46 10 -38 0 -39 1 -39 34 0 34 1 35
48 38 68 4 58 22 -15 26 l-63 3 0 -111z"/>
<path d="M5371 2653 c0 -10 15 -58 32 -108 26 -72 36 -91 53 -93 19 -3 26 7
47 65 44 117 51 142 44 149 -14 14 -37 -20 -58 -84 -12 -37 -25 -70 -28 -75
-4 -4 -17 26 -30 65 -13 40 -28 79 -33 86 -15 17 -28 15 -27 -5z"/>
<path d="M5620 2560 c0 -91 3 -110 15 -110 12 0 15 19 15 110 0 91 -3 110 -15
110 -12 0 -15 -19 -15 -110z"/>
<path d="M5752 2654 c-17 -12 -22 -24 -20 -47 2 -27 11 -36 48 -55 33 -16 45
-28 45 -45 0 -29 -39 -35 -66 -11 -16 14 -22 15 -32 5 -9 -10 -7 -16 12 -32
31 -25 85 -25 111 1 38 38 21 79 -45 105 -37 14 -46 21 -43 38 4 28 34 34 59
11 16 -14 22 -15 32 -5 9 10 7 16 -12 32 -28 23 -59 24 -89 3z"/>
<path d="M5925 2659 c-9 -13 12 -29 38 -29 15 0 17 -11 17 -90 0 -73 3 -90 15
-90 12 0 15 17 15 95 l0 95 31 0 c20 0 29 4 27 13 -6 16 -134 22 -143 6z"/>
<path d="M6175 2660 c-8 -13 -75 -193 -75 -202 0 -19 31 -5 40 17 8 22 16 25
55 25 39 0 47 -4 57 -25 10 -23 38 -35 38 -17 0 11 -58 170 -71 193 -10 20
-34 25 -44 9z m49 -107 c7 -21 4 -23 -28 -23 -34 0 -35 0 -24 33 5 17 12 41
16 52 5 18 7 16 18 -10 6 -17 15 -40 18 -52z"/>
<path d="M6369 2649 c-35 -35 -22 -70 36 -99 52 -26 62 -45 32 -64 -13 -8 -24
-7 -46 5 -16 9 -34 14 -40 10 -20 -12 11 -41 51 -48 100 -16 124 98 26 122
-38 10 -54 31 -38 50 16 19 44 19 60 1 14 -17 41 -10 34 8 -6 16 -48 36 -74
36 -11 0 -29 -9 -41 -21z"/>
<path d="M2485 2320 c-10 -11 -16 -22 -14 -25 7 -6 49 24 49 36 0 15 -16 10
-35 -11z"/>
<path d="M2218 2273 c-27 -7 -21 -21 10 -25 l27 -3 3 -92 c2 -73 6 -93 17 -93
11 0 15 20 17 93 l3 92 28 3 c30 4 36 17 11 26 -17 7 -89 6 -116 -1z"/>
<path d="M2417 2274 c-4 -4 -7 -54 -7 -111 l0 -103 65 0 c51 0 65 3 65 15 0
11 -12 15 -45 15 -43 0 -45 1 -45 29 0 28 3 30 43 33 23 2 42 8 42 13 0 6 -19
11 -42 13 -42 3 -43 4 -43 38 0 34 0 34 46 34 32 0 44 4 42 13 -5 13 -109 23
-121 11z"/>
<path d="M2674 2266 c-43 -19 -64 -53 -64 -104 0 -62 40 -102 103 -102 53 0
94 27 84 54 -6 16 -9 16 -33 -3 -34 -27 -64 -27 -98 0 -18 15 -26 30 -26 53 0
62 77 100 121 60 10 -9 26 -14 35 -10 14 5 14 9 3 23 -13 15 -70 43 -86 43 -4
-1 -22 -7 -39 -14z"/>
<path d="M3029 2280 c-1 -3 -7 -38 -13 -79 l-11 -75 -48 72 c-32 48 -55 72
-68 72 -18 0 -19 -8 -19 -105 0 -85 3 -105 15 -105 11 0 15 18 17 78 l3 77 55
-78 c73 -105 84 -101 88 27 2 59 -1 103 -8 110 -5 5 -11 8 -11 6z"/>
<path d="M3295 2271 c-73 -32 -94 -125 -41 -180 24 -25 38 -31 73 -31 46 0 93
23 93 46 0 23 -19 25 -40 4 -26 -26 -60 -26 -94 1 -33 26 -36 79 -6 109 24 24
82 27 100 5 16 -19 40 -19 40 0 0 32 -85 63 -125 46z"/>
<path d="M3752 2268 c-26 -13 -39 -54 -25 -77 5 -9 23 -22 39 -29 52 -23 59
-29 59 -48 0 -25 -50 -32 -74 -10 -11 10 -21 12 -31 6 -12 -7 -11 -12 4 -29
14 -15 31 -21 62 -21 53 0 76 21 72 64 -2 25 -11 35 -45 51 -61 30 -71 41 -50
62 14 15 20 15 44 3 15 -8 31 -16 36 -18 12 -6 8 25 -6 36 -20 17 -61 22 -85
10z"/>
<path d="M4030 2170 c0 -91 3 -110 15 -110 10 0 15 11 15 35 0 32 2 35 29 35
69 0 102 36 87 95 -8 30 -27 41 -93 49 l-53 7 0 -111z m108 53 c6 -9 12 -20
12 -24 0 -17 -34 -39 -61 -39 -27 0 -29 3 -29 38 0 21 3 42 7 46 11 11 56 -3
71 -21z"/>
<path d="M4288 2263 c-8 -10 -27 -54 -43 -98 -15 -44 -30 -86 -33 -92 -2 -7 4
-13 13 -13 9 0 19 9 22 20 4 17 14 20 54 20 38 0 51 -4 59 -20 9 -16 40 -29
40 -16 0 15 -80 211 -87 213 -5 2 -16 -4 -25 -14z m42 -94 c8 -28 8 -29 -26
-29 -38 0 -38 0 -12 70 9 23 10 24 20 7 5 -10 14 -32 18 -48z"/>
<path d="M4468 2274 c-13 -12 -9 -202 3 -210 15 -9 29 14 29 49 0 42 39 33 65
-15 12 -22 27 -38 38 -38 16 0 16 3 -3 39 -13 26 -16 42 -9 46 32 20 32 97 0
115 -25 13 -115 23 -123 14z m109 -51 c20 -26 -2 -53 -42 -53 -34 0 -35 1 -35
41 0 41 0 41 33 34 17 -4 37 -14 44 -22z"/>
<path d="M4762 2271 c-9 -5 -82 -189 -82 -206 0 -15 33 -2 37 15 4 17 14 20
58 20 44 0 54 -3 58 -20 4 -16 37 -30 37 -16 0 3 -16 50 -36 105 -35 97 -49
117 -72 102z m42 -108 c7 -21 4 -23 -29 -23 -31 0 -36 3 -30 18 4 9 12 30 17
46 l11 29 12 -24 c7 -13 16 -34 19 -46z"/>
<path d="M5030 2171 l0 -111 63 0 c56 0 66 3 89 28 34 35 43 72 28 116 -15 45
-44 63 -119 72 l-61 7 0 -112z m128 53 c17 -11 22 -24 22 -54 0 -51 -27 -80
-75 -80 l-35 0 0 81 0 81 33 -7 c17 -4 42 -13 55 -21z"/>
<path d="M5290 2170 l0 -110 65 0 c51 0 65 3 65 15 0 11 -12 15 -50 15 -49 0
-50 1 -50 29 0 28 3 30 42 33 60 4 63 28 3 28 -46 0 -46 0 -43 33 3 31 5 32
51 35 81 5 54 32 -34 32 l-49 0 0 -110z"/>
<path d="M5752 2268 c-24 -12 -38 -48 -28 -73 3 -8 27 -25 53 -38 57 -27 67
-60 19 -65 -16 -2 -33 1 -39 7 -6 6 -20 11 -31 11 -18 0 -18 -2 4 -25 20 -22
32 -25 70 -23 38 3 47 7 58 30 18 38 2 64 -53 88 -52 22 -59 31 -40 56 13 19
14 19 49 0 20 -11 38 -17 41 -14 10 10 -7 35 -31 47 -30 13 -42 13 -72 -1z"/>
<path d="M3120 2164 c0 -95 2 -105 18 -102 13 3 18 16 20 63 5 83 -6 145 -24
145 -11 0 -14 -20 -14 -106z"/>
<path d="M3546 2261 c-7 -10 -76 -191 -76 -197 0 -13 31 -1 40 16 8 16 21 20
59 20 40 0 50 -3 54 -20 3 -11 13 -20 22 -20 12 0 15 6 10 23 -13 43 -59 162
-68 175 -11 14 -33 16 -41 3z m33 -53 c25 -68 25 -68 -13 -68 l-35 0 16 45 c8
25 17 45 19 45 3 0 8 -10 13 -22z"/>
<path d="M5480 2262 c0 -5 15 -52 34 -103 29 -81 37 -94 56 -94 20 0 28 13 56
90 37 102 40 115 20 115 -8 0 -25 -32 -42 -80 -15 -44 -31 -77 -36 -72 -4 4
-18 39 -31 77 -15 45 -30 71 -40 73 -10 2 -17 -1 -17 -6z"/>
</g>
</svg>
