<svg width="147" height="75" viewBox="0 0 147 75" fill="none" xmlns="http://www.w3.org/2000/svg">
<path d="M66.4982 34.8557C66.381 35.0906 66.254 35.3888 66.2149 35.5153C66.1661 35.6418 66.0293 36.0031 65.8926 36.3284C65.7656 36.6537 65.2772 37.8465 64.8279 38.9938C64.3688 40.1324 63.9585 41.1443 63.9194 41.2257C63.8608 41.3702 63.9292 41.3883 64.6814 41.3883C65.4628 41.3883 65.5214 41.3793 65.5898 41.1806C65.6191 41.0721 65.7363 40.7649 65.8437 40.5028L66.0293 40.0329H67.5238H69.0183L69.1844 40.4577C69.5947 41.4969 69.4579 41.3883 70.3761 41.3883C70.8254 41.3883 71.1966 41.3793 71.1966 41.3611C71.1966 41.352 71.0598 41.018 70.8938 40.6204C70.7375 40.2228 70.4543 39.5272 70.2686 39.0842C70.0928 38.6325 69.5947 37.4126 69.1649 36.3738L68.3834 34.4762L67.5434 34.4491L66.7033 34.422L66.4982 34.8557ZM68.0611 37.458C68.3151 38.0541 68.5104 38.5693 68.4909 38.6053C68.4714 38.6507 68.0318 38.6776 67.5238 38.6776C66.7912 38.6776 66.6057 38.6507 66.6057 38.5421C66.6057 38.4699 66.7717 38 66.9866 37.4852C67.1917 36.97 67.3969 36.4729 67.4359 36.3738C67.475 36.2743 67.5238 36.2289 67.5531 36.2834C67.5727 36.3284 67.7974 36.8614 68.0611 37.458Z" fill="#243647"/>
<path d="M72.4665 37.9096V41.3883H73.2479H74.0294V37.9096V34.431H73.2479H72.4665V37.9096Z" fill="#243647"/>
<path d="M75.7876 37.9096V41.3883H78.2296H80.6716V40.7108V40.0329H79.0111H77.3505V39.31V38.5875H78.8157H80.2809V37.9096V37.2321H78.8157H77.3505V36.5092V35.7863H78.9622H80.5739V35.1087V34.431H78.1808H75.7876V37.9096Z" fill="#243647"/>
<path d="M82.215 34.4852C82.1662 34.5214 82.1368 36.0934 82.1368 37.9728V41.3883H82.9671H83.7974V40.2137V39.0391H84.2858C84.8426 39.0391 84.7937 38.985 85.7412 40.5481L86.2492 41.3883H87.0794C87.5288 41.3883 87.9 41.3701 87.9 41.352C87.9 41.3342 87.5678 40.783 87.1674 40.1233C86.7669 39.4636 86.4348 38.8765 86.4348 38.8224C86.4445 38.7679 86.5813 38.6416 86.7473 38.5421C87.1966 38.2803 87.5874 37.711 87.7241 37.1417C87.8706 36.4641 87.6655 35.7863 87.1185 35.2261C86.5031 34.5666 86.1906 34.4943 84.0904 34.4491C83.0941 34.431 82.254 34.4491 82.215 34.4852ZM85.8585 36.1297C86.0636 36.3465 86.1417 36.5092 86.1417 36.7622C86.1417 37.3857 85.5654 37.6837 84.3835 37.6837H83.7486L83.7778 36.7259L83.8072 35.7683L84.6863 35.8044C85.5459 35.8315 85.5849 35.8406 85.8585 36.1297Z" fill="#243647"/>
<path d="M88.3883 34.5034C88.3883 34.5576 88.7204 35.4792 89.1306 36.5633C89.5408 37.6566 89.9317 38.7048 90 38.9037C90.0781 39.1023 90.3125 39.7258 90.5275 40.286C90.7521 40.8553 90.9279 41.3342 90.9279 41.352C90.9279 41.3702 91.3675 41.3883 91.9049 41.3883C92.4419 41.3883 92.8815 41.3702 92.8815 41.352C92.8815 41.3342 93.077 40.8009 93.3211 40.1596C93.5653 39.5181 94.0343 38.2622 94.3664 37.3675C94.6887 36.4729 95.06 35.4792 95.1868 35.1629C95.314 34.8467 95.4211 34.5485 95.4211 34.5034C95.4211 34.4582 95.0694 34.4311 94.6204 34.4491L93.8291 34.4762L93.5457 35.1991C93.3992 35.5966 92.9792 36.735 92.6275 37.7292C92.266 38.7229 91.9536 39.554 91.934 39.5722C91.8559 39.6626 91.7389 39.3736 90.8792 36.9881L89.9706 34.4762L89.1796 34.4491C88.74 34.4311 88.3883 34.4582 88.3883 34.5034Z" fill="#243647"/>
<path d="M96.5936 37.9096V41.3883H97.3747H98.1562L98.137 37.9277L98.1075 34.4762L97.3555 34.4491L96.5936 34.422V37.9096Z" fill="#243647"/>
<path d="M99.817 37.9096V41.3883H102.259H104.701V40.7108V40.0329H103.04H101.38V39.31V38.5875H102.845H104.31V37.9096V37.2321H102.845H101.38V36.5092V35.7863H102.943H104.506V35.1087V34.431H102.161H99.817V37.9096Z" fill="#243647"/>
<path d="M105.648 34.4943C105.629 34.5305 105.844 35.3617 106.127 36.3284C106.42 37.2953 106.713 38.3345 106.801 38.6325C106.879 38.9306 107.094 39.6626 107.27 40.2588L107.592 41.3433L108.442 41.3702L109.282 41.3974L109.438 40.8735C109.526 40.5841 109.653 40.1687 109.731 39.9426C109.8 39.7167 109.975 39.1296 110.122 38.6325C110.259 38.1355 110.445 37.5484 110.523 37.3316C110.601 37.1054 110.659 36.8527 110.659 36.7623C110.659 36.6719 110.698 36.5996 110.747 36.5996C110.815 36.5996 112.222 41.0271 112.222 41.2711C112.222 41.3611 112.466 41.3883 113.102 41.3883H113.971L114.088 40.9998C114.146 40.7922 114.254 40.4396 114.332 40.2138C114.4 39.9879 114.615 39.2378 114.811 38.5421C115.182 37.2231 115.27 36.934 115.68 35.5153C115.817 35.0455 115.934 34.6028 115.934 34.5395C115.934 34.4492 115.748 34.4311 115.182 34.4492L114.42 34.4763L113.863 36.5092C113.56 37.6297 113.258 38.7048 113.189 38.9038C113.082 39.2469 113.072 39.256 112.994 39.0392C112.955 38.9125 112.594 37.8374 112.193 36.6447L111.46 34.4763H110.737H110.025L109.917 34.8829C109.849 35.1088 109.683 35.6509 109.536 36.1026C109.389 36.5455 109.116 37.4307 108.921 38.0723C108.725 38.723 108.54 39.1746 108.501 39.1115C108.462 39.0483 108.227 38.244 107.973 37.3225C107.729 36.4007 107.446 35.3888 107.358 35.0636L107.182 34.4763L106.44 34.4492C106.029 34.4311 105.678 34.4582 105.648 34.4943Z" fill="#243647"/>
<path d="M36.0678 11.7431C33.8853 12.3573 32.8014 14.7204 33.7842 16.7366C34.1021 17.387 34.8393 18.1097 35.4391 18.3554L35.8437 18.5288V21.3616V24.2016L29.6867 24.2233L23.5225 24.245L22.8142 24.4401C21.9615 24.6786 20.7908 25.2206 20.0682 25.7192C17.8279 27.2657 16.4043 29.9901 16.4043 32.7145V33.3143H15.4648C14.6988 33.3143 14.4603 33.3432 14.1279 33.4661C13.5715 33.6757 13.0006 34.2177 12.7043 34.8175L12.4658 35.3016V39.3485V43.3954L12.6682 43.829C12.9355 44.3999 13.4197 44.8913 13.9762 45.137C14.3736 45.3177 14.5109 45.3393 15.4143 45.3682L16.4043 45.3972V45.9536C16.4043 47.0376 16.715 48.4106 17.1992 49.4802C17.9869 51.2145 19.7285 52.9272 21.5207 53.7222C22.0627 53.9679 23.0889 54.2641 23.7971 54.3798L24.0644 54.4231V55.2686C24.0717 56.5405 24.3391 57.003 25.0328 56.9307C25.358 56.8946 25.806 56.62 28.0535 55.1313L29.123 54.4231L39.7244 54.4014L50.333 54.3798L51.0557 54.1847C53.0141 53.6643 54.7195 52.5298 55.8975 50.9544C56.9236 49.5886 57.4801 48.0204 57.574 46.2282L57.6174 45.3827H58.3834C58.8387 45.3827 59.3301 45.3393 59.583 45.2743C60.443 45.0503 61.1656 44.3565 61.433 43.4966C61.5631 43.0919 61.5703 42.7739 61.5703 39.3485C61.5703 35.9448 61.5559 35.6052 61.4402 35.2077C61.2018 34.4634 60.667 33.8419 59.9443 33.495C59.7131 33.3866 59.4529 33.3505 58.6363 33.3288L57.6174 33.2999L57.5668 32.4255C57.5451 31.9413 57.4728 31.3126 57.415 31.038C56.7213 27.7932 54.3871 25.3218 51.1785 24.4401L50.4775 24.245L44.3205 24.2233L38.1562 24.2016V21.3688V18.536L38.6115 18.3265C39.551 17.8856 40.3459 16.8233 40.541 15.7538C40.8373 14.1278 39.8328 12.3934 38.2863 11.8515C37.6865 11.6419 36.617 11.5913 36.0678 11.7431ZM50.557 26.8104C52.3637 27.2657 53.874 28.5737 54.64 30.3587C55.1531 31.5438 55.1387 31.2548 55.1387 39.3052C55.1387 47.2327 55.1459 47.0954 54.7051 48.1649C54.0764 49.6608 52.7033 51.0266 51.2797 51.5614C50.0656 52.0167 51.1207 51.9878 36.9639 51.9733C27.656 51.9661 23.9922 51.9372 23.7031 51.8794C21.7303 51.4747 20.0465 50.0438 19.266 48.1071C18.8107 46.9798 18.8252 47.2182 18.8252 39.204C18.8252 31.1102 18.7963 31.5872 19.3094 30.3659C20.0609 28.5665 21.8025 27.1067 23.6453 26.7454C23.8187 26.7093 29.8096 26.6804 36.9711 26.6731C49.7477 26.6659 49.9934 26.6659 50.557 26.8104Z" fill="#243647"/>
<path d="M27.6055 33.4301C26.2396 33.7192 24.9822 34.7309 24.3174 36.0606C23.9561 36.7905 23.8838 37.1518 23.8838 38.1563C23.891 38.9584 23.9127 39.1246 24.0934 39.6377C24.3607 40.411 24.7221 40.9891 25.293 41.5528C26.2035 42.4561 27.1285 42.8536 28.4727 42.9041C29.441 42.9475 29.9396 42.8463 30.749 42.4561C31.9414 41.878 32.8014 40.8662 33.2783 39.4932C33.4662 38.9584 33.5096 37.7227 33.3578 37.0651C32.7941 34.5213 30.1854 32.8737 27.6055 33.4301ZM29.4338 36.5303C30.0553 36.8266 30.4527 37.4698 30.4455 38.1563C30.4383 39.3559 29.3182 40.2014 28.1764 39.8618C27.6705 39.7172 27.302 39.4065 27.0635 38.9151C26.5576 37.8889 27.0563 36.7832 28.1836 36.4147C28.4654 36.3207 29.1303 36.3785 29.4338 36.5303Z" fill="#243647"/>
<path d="M44.3277 33.4156C42.0297 33.9432 40.4326 36.0316 40.5627 38.3658C40.6277 39.6738 41.177 40.8373 42.1164 41.7117C42.615 42.167 43.5039 42.644 44.1904 42.8174C44.7541 42.9619 45.9248 42.9547 46.4885 42.8102C48.0494 42.4055 49.3646 41.1625 49.8994 39.5943C50.0801 39.0596 50.109 38.8789 50.109 38.1201C50.109 37.1084 49.9717 36.5664 49.4875 35.7354C49.1406 35.1428 48.324 34.319 47.7531 33.9793C46.7775 33.4012 45.39 33.1772 44.3277 33.4156ZM46.1416 36.5231C47.5652 37.1951 47.5291 39.1174 46.0766 39.7895C44.6385 40.4615 43.0703 38.8861 43.7279 37.4336C44.1543 36.4941 45.2238 36.0895 46.1416 36.5231Z" fill="#243647"/>
</svg>
