<svg width="223" height="56" viewBox="0 0 223 56" fill="none" xmlns="http://www.w3.org/2000/svg">
<circle cx="28" cy="28" r="28" fill="url(#paint0_linear_185_596)"/>
<mask id="path-2-inside-1_185_596" fill="white">
<path d="M27.7211 14.7634C27.2948 14.8753 26.9377 15.0938 26.65 15.4082C25.8293 16.3088 25.8293 17.6144 26.6553 18.4884C26.9591 18.8081 27.2522 19 27.5985 19.1012L27.8224 19.1705V20.5774V21.9789H23.7403C19.2426 21.9789 19.3758 21.9682 18.6617 22.3146C18.1715 22.5544 17.5586 23.1619 17.3082 23.6629C16.9938 24.2864 16.9511 24.5422 16.9511 25.8105V26.9349H16.722C15.8214 26.9349 15.1659 27.3186 14.8248 28.0487L14.6863 28.3471V30.159V31.9708L14.8355 32.2746C15.0487 32.7116 15.475 33.0846 15.9226 33.2232C16.1145 33.2818 16.4182 33.3297 16.6101 33.3297H16.9511V34.4542C16.9511 35.7012 16.9938 35.9783 17.2869 36.5805C17.4947 37.0015 18.0489 37.6036 18.4592 37.8488C18.8163 38.0673 19.3758 38.2591 19.7862 38.3071L20.0899 38.3444L20.1059 40.0283L20.1219 41.707L20.2764 41.8402C20.3884 41.9361 20.4789 41.9681 20.5962 41.9521C20.7028 41.9361 21.71 41.2967 23.4259 40.1509L26.0904 38.3657L31.5793 38.339L37.0682 38.3124L37.4146 38.1952C38.4751 37.8328 39.3011 36.9535 39.5676 35.909C39.6315 35.6585 39.6528 35.3068 39.6528 34.4542V33.3297H39.9939C40.1857 33.3297 40.4895 33.2818 40.6813 33.2232C41.129 33.0846 41.5553 32.7116 41.7685 32.2746L41.9177 31.9708V30.159V28.3471L41.7791 28.0487C41.4381 27.3186 40.7826 26.9349 39.882 26.9349H39.6528V25.8105C39.6528 24.5368 39.6102 24.2704 39.2905 23.6575C39.0347 23.1619 38.4218 22.5438 37.9475 22.3146C37.2441 21.9682 37.3773 21.9789 32.8743 21.9789H28.7816V20.5774V19.1705L29.0107 19.1065C29.3571 19.0053 29.6342 18.8188 29.9433 18.4937C30.7747 17.6144 30.78 16.3088 29.954 15.4082C29.3998 14.8007 28.5258 14.5449 27.7211 14.7634ZM28.739 15.6693C29.2878 15.8558 29.6449 16.3568 29.6502 16.9429C29.6502 17.3693 29.517 17.6677 29.2079 17.9448C28.6697 18.4297 27.9343 18.4297 27.396 17.9448C27.087 17.6677 26.9537 17.3693 26.9537 16.9429C26.9591 16.0104 27.8597 15.3655 28.739 15.6693ZM37.4733 23.1086C37.9689 23.3538 38.3152 23.7055 38.5497 24.2064L38.7203 24.5635V30.1323V35.7012L38.5497 36.0635C38.3472 36.4899 37.9422 36.9322 37.5745 37.1347C37.0256 37.4331 37.0523 37.4331 31.2862 37.4331C26.2769 37.4331 25.9732 37.4384 25.7707 37.5344C25.6534 37.5876 24.5716 38.2911 23.362 39.1011C22.1576 39.9111 21.1344 40.5932 21.0865 40.6092C21.0118 40.6412 21.0012 40.5133 21.0012 39.3409C21.0012 38.0726 20.9959 38.03 20.8786 37.8541C20.7134 37.6036 20.4363 37.4331 20.2072 37.4331C19.8768 37.4331 19.2959 37.2839 19.0348 37.1347C18.5285 36.8416 18.1502 36.3833 17.9636 35.8397C17.8571 35.5146 17.8571 35.4667 17.8677 30.0364L17.8837 24.5635L18.0542 24.2064C18.3367 23.6042 18.7896 23.2046 19.4291 22.9807C19.6796 22.8955 20.2498 22.8902 28.3872 22.9008L37.0736 22.9115L37.4733 23.1086ZM16.9405 30.143L16.9511 32.4238H16.6474C16.253 32.4238 15.9439 32.2853 15.7468 32.0188L15.5922 31.8216L15.5762 30.2176C15.5602 28.6402 15.5656 28.6082 15.6828 28.3791C15.88 27.9954 16.1784 27.8408 16.6847 27.8568L16.9245 27.8675L16.9405 30.143ZM40.5534 27.9687C40.7506 28.0753 40.9158 28.2831 40.9904 28.5283C41.0277 28.6508 41.0384 29.2743 41.0277 30.2709L41.0117 31.8216L40.8572 32.0188C40.66 32.2853 40.3509 32.4238 39.9619 32.4238H39.6528V30.1696C39.6528 28.928 39.6688 27.8941 39.6955 27.8728C39.7541 27.8089 40.3776 27.8781 40.5534 27.9687Z"/>
</mask>
<path d="M27.7211 14.7634C27.2948 14.8753 26.9377 15.0938 26.65 15.4082C25.8293 16.3088 25.8293 17.6144 26.6553 18.4884C26.9591 18.8081 27.2522 19 27.5985 19.1012L27.8224 19.1705V20.5774V21.9789H23.7403C19.2426 21.9789 19.3758 21.9682 18.6617 22.3146C18.1715 22.5544 17.5586 23.1619 17.3082 23.6629C16.9938 24.2864 16.9511 24.5422 16.9511 25.8105V26.9349H16.722C15.8214 26.9349 15.1659 27.3186 14.8248 28.0487L14.6863 28.3471V30.159V31.9708L14.8355 32.2746C15.0487 32.7116 15.475 33.0846 15.9226 33.2232C16.1145 33.2818 16.4182 33.3297 16.6101 33.3297H16.9511V34.4542C16.9511 35.7012 16.9938 35.9783 17.2869 36.5805C17.4947 37.0015 18.0489 37.6036 18.4592 37.8488C18.8163 38.0673 19.3758 38.2591 19.7862 38.3071L20.0899 38.3444L20.1059 40.0283L20.1219 41.707L20.2764 41.8402C20.3884 41.9361 20.4789 41.9681 20.5962 41.9521C20.7028 41.9361 21.71 41.2967 23.4259 40.1509L26.0904 38.3657L31.5793 38.339L37.0682 38.3124L37.4146 38.1952C38.4751 37.8328 39.3011 36.9535 39.5676 35.909C39.6315 35.6585 39.6528 35.3068 39.6528 34.4542V33.3297H39.9939C40.1857 33.3297 40.4895 33.2818 40.6813 33.2232C41.129 33.0846 41.5553 32.7116 41.7685 32.2746L41.9177 31.9708V30.159V28.3471L41.7791 28.0487C41.4381 27.3186 40.7826 26.9349 39.882 26.9349H39.6528V25.8105C39.6528 24.5368 39.6102 24.2704 39.2905 23.6575C39.0347 23.1619 38.4218 22.5438 37.9475 22.3146C37.2441 21.9682 37.3773 21.9789 32.8743 21.9789H28.7816V20.5774V19.1705L29.0107 19.1065C29.3571 19.0053 29.6342 18.8188 29.9433 18.4937C30.7747 17.6144 30.78 16.3088 29.954 15.4082C29.3998 14.8007 28.5258 14.5449 27.7211 14.7634ZM28.739 15.6693C29.2878 15.8558 29.6449 16.3568 29.6502 16.9429C29.6502 17.3693 29.517 17.6677 29.2079 17.9448C28.6697 18.4297 27.9343 18.4297 27.396 17.9448C27.087 17.6677 26.9537 17.3693 26.9537 16.9429C26.9591 16.0104 27.8597 15.3655 28.739 15.6693ZM37.4733 23.1086C37.9689 23.3538 38.3152 23.7055 38.5497 24.2064L38.7203 24.5635V30.1323V35.7012L38.5497 36.0635C38.3472 36.4899 37.9422 36.9322 37.5745 37.1347C37.0256 37.4331 37.0523 37.4331 31.2862 37.4331C26.2769 37.4331 25.9732 37.4384 25.7707 37.5344C25.6534 37.5876 24.5716 38.2911 23.362 39.1011C22.1576 39.9111 21.1344 40.5932 21.0865 40.6092C21.0118 40.6412 21.0012 40.5133 21.0012 39.3409C21.0012 38.0726 20.9959 38.03 20.8786 37.8541C20.7134 37.6036 20.4363 37.4331 20.2072 37.4331C19.8768 37.4331 19.2959 37.2839 19.0348 37.1347C18.5285 36.8416 18.1502 36.3833 17.9636 35.8397C17.8571 35.5146 17.8571 35.4667 17.8677 30.0364L17.8837 24.5635L18.0542 24.2064C18.3367 23.6042 18.7896 23.2046 19.4291 22.9807C19.6796 22.8955 20.2498 22.8902 28.3872 22.9008L37.0736 22.9115L37.4733 23.1086ZM16.9405 30.143L16.9511 32.4238H16.6474C16.253 32.4238 15.9439 32.2853 15.7468 32.0188L15.5922 31.8216L15.5762 30.2176C15.5602 28.6402 15.5656 28.6082 15.6828 28.3791C15.88 27.9954 16.1784 27.8408 16.6847 27.8568L16.9245 27.8675L16.9405 30.143ZM40.5534 27.9687C40.7506 28.0753 40.9158 28.2831 40.9904 28.5283C41.0277 28.6508 41.0384 29.2743 41.0277 30.2709L41.0117 31.8216L40.8572 32.0188C40.66 32.2853 40.3509 32.4238 39.9619 32.4238H39.6528V30.1696C39.6528 28.928 39.6688 27.8941 39.6955 27.8728C39.7541 27.8089 40.3776 27.8781 40.5534 27.9687Z" stroke="white" stroke-width="1.808" mask="url(#path-2-inside-1_185_596)"/>
<path d="M21.0546 28.7219C21.0618 28.4788 21.1069 28.1993 21.2245 27.9778V27.9768C21.5176 27.4193 22.0456 27.0589 22.6259 26.9827C22.4942 26.9928 22.3786 27.0123 22.291 27.0403C21.7716 27.2114 21.2944 27.6798 21.124 28.1663C21.0866 28.2774 21.0582 28.4815 21.0546 28.7219ZM24.1103 27.4768C23.9431 27.3102 23.7402 27.173 23.5019 27.0803C23.4445 27.0588 23.3767 27.0414 23.3017 27.0256C23.3502 27.0382 23.3991 27.0508 23.4472 27.0676L23.4501 27.0686C23.7052 27.1599 23.9281 27.3001 24.1103 27.4768ZM24.2392 27.6174C24.2363 27.6138 24.2333 27.6103 24.2304 27.6067C24.2334 27.6102 24.2362 27.6139 24.2392 27.6174ZM24.5585 29.3391C24.6613 29.0194 24.6728 28.6796 24.5976 28.3577C24.6135 28.4308 24.6257 28.5056 24.6328 28.5823C24.6575 28.85 24.6308 29.105 24.5585 29.3391ZM21.4374 29.9163C21.3491 29.8075 21.2707 29.6878 21.205 29.5579L21.2031 29.554C21.1163 29.3771 21.0732 29.1639 21.0585 28.9612C21.0692 29.1425 21.0941 29.2946 21.1249 29.386C21.1931 29.5789 21.302 29.7577 21.4374 29.9163ZM24.5009 29.5002C24.5125 29.4736 24.522 29.4463 24.5322 29.4192C24.5223 29.4465 24.5121 29.4736 24.5009 29.5002ZM23.7929 30.3196C23.813 30.3067 23.8336 30.2944 23.8535 30.2805C23.8337 30.2939 23.8134 30.3067 23.7929 30.3196ZM23.5859 30.4329C23.6375 30.4094 23.6877 30.3829 23.7372 30.3538C23.6879 30.3824 23.6379 30.4084 23.5859 30.4329ZM22.8339 30.5862C23.0454 30.5862 23.2384 30.5568 23.4179 30.4983C23.3928 30.5059 23.3668 30.5137 23.3398 30.5198C23.1917 30.5534 23.0371 30.5579 22.8661 30.5579C22.5584 30.5578 22.2688 30.4996 22.0087 30.3733C22.2643 30.5084 22.5489 30.5861 22.8339 30.5862ZM23.5185 30.4622C23.5276 30.4585 23.5368 30.4552 23.5458 30.4514C23.5369 30.4553 23.5276 30.4585 23.5185 30.4622Z" fill="white" stroke="white" stroke-width="0.904"/>
<path d="M34.7243 27.2451C34.5755 27.1514 34.4127 27.077 34.237 27.0312L34.2331 27.0303C33.8979 26.94 33.5151 26.9507 33.2204 27.042C33.2044 27.0471 33.1892 27.0541 33.1735 27.0596C33.3818 26.9905 33.6289 26.9727 33.8395 26.9834C34.0636 26.9948 34.3249 27.0399 34.5319 27.1396L34.5329 27.1387C34.6002 27.1705 34.6634 27.2072 34.7243 27.2451ZM33.0593 27.1016C33.0484 27.106 33.0377 27.1106 33.027 27.1152C33.0377 27.1105 33.0485 27.1062 33.0593 27.1016ZM32.3884 27.5938C32.5377 27.4171 32.7247 27.2663 32.9479 27.1533C32.7295 27.2601 32.5461 27.4038 32.3884 27.5938ZM34.8259 27.3135C34.8116 27.303 34.7975 27.2923 34.7829 27.2822C34.7976 27.2922 34.8115 27.3031 34.8259 27.3135ZM34.9401 27.4023C34.9303 27.3939 34.9198 27.3862 34.9099 27.3779C34.9199 27.3862 34.9303 27.3939 34.9401 27.4023ZM32.2653 27.7578C32.2978 27.7089 32.3323 27.6611 32.3698 27.6152C32.3336 27.6603 32.2988 27.7076 32.2653 27.7578ZM33.7292 30.5811C34.651 30.6022 35.4783 29.9084 35.5622 28.9229V28.9219C35.599 28.4791 35.4691 28.0546 35.2243 27.7148C35.433 28.0121 35.5446 28.3737 35.5485 28.7686V28.7734C35.5485 28.9378 35.5426 29.0871 35.5056 29.2373C35.4676 29.3913 35.4038 29.5187 35.3317 29.6484C35.003 30.2458 34.372 30.5858 33.7292 30.5811ZM31.9811 28.4775C32.0201 28.2449 32.1035 28.0194 32.2282 27.8154C32.1847 27.8854 32.1421 27.9592 32.1032 28.0391L32.1022 28.04L32.0231 28.2119C32.0078 28.2503 32.0009 28.2751 31.9958 28.3027C31.9883 28.3433 31.9838 28.3935 31.9811 28.4775ZM32.1872 29.6787C32.0882 29.5043 32.0215 29.3162 31.986 29.123C31.9889 29.1726 31.9915 29.2097 31.9968 29.2412C32.0071 29.303 32.0225 29.3518 32.0837 29.4814L32.0856 29.4844C32.117 29.5523 32.1509 29.6171 32.1872 29.6787ZM32.5407 30.1162C32.5524 30.1268 32.5649 30.1363 32.5768 30.1465C32.5648 30.1363 32.5524 30.1267 32.5407 30.1162ZM32.6696 30.2207C32.6861 30.2329 32.7025 30.2452 32.7194 30.2568C32.7024 30.2451 32.686 30.2329 32.6696 30.2207ZM32.8561 30.3428C32.8658 30.3482 32.8757 30.3532 32.8854 30.3584C32.8758 30.353 32.8657 30.3483 32.8561 30.3428ZM33.5954 30.5732C33.6261 30.5763 33.6566 30.5787 33.6872 30.5801C33.6565 30.5791 33.626 30.5758 33.5954 30.5732Z" fill="white" stroke="white" stroke-width="0.904"/>
<path d="M29.6691 33.0637C29.9316 32.9565 30.1546 32.819 30.3351 32.6506L30.4201 32.5657C30.4217 32.564 30.4234 32.5615 30.425 32.5598C30.1946 32.7815 29.9453 32.9462 29.6691 33.0637ZM26.4191 32.7688C26.4342 32.7802 26.4497 32.791 26.465 32.802C26.4497 32.791 26.4343 32.7802 26.4191 32.7688ZM26.5334 32.8499C26.5515 32.8619 26.5698 32.8736 26.5881 32.885C26.5697 32.8735 26.5515 32.8619 26.5334 32.8499ZM26.9807 33.0803C27.0123 33.0932 27.0435 33.1067 27.0754 33.1184C27.0431 33.107 27.0122 33.0929 26.9807 33.0803ZM29.5344 33.1165C29.5619 33.1069 29.5887 33.0964 29.6154 33.0862C29.5887 33.0968 29.5616 33.1067 29.5344 33.1165ZM28.3019 33.304C28.4111 33.304 28.5169 33.3 28.6193 33.2932C28.5168 33.2995 28.411 33.302 28.3019 33.302C27.8722 33.302 27.4916 33.2532 27.1506 33.1438C27.4804 33.254 27.8365 33.304 28.3019 33.304ZM29.2697 33.1956C29.3036 33.1872 29.3365 33.1765 29.3693 33.1672C29.3363 33.1768 29.3035 33.1871 29.2697 33.1956ZM28.9748 33.2551C28.9922 33.2524 29.0093 33.2483 29.0266 33.2454C29.0093 33.2482 28.9922 33.2525 28.9748 33.2551ZM28.632 33.2922C28.6774 33.2891 28.7218 33.283 28.7658 33.2786C28.7217 33.2828 28.6773 33.2893 28.632 33.2922Z" fill="white" stroke="white" stroke-width="0.904"/>
<path d="M70.0341 39.5H64.7614L72.7955 16.2273H79.1364L87.1591 39.5H81.8864L76.0568 21.5455H75.875L70.0341 39.5ZM69.7045 30.3523H82.1591V34.1932H69.7045V30.3523ZM94.8807 16.2273V39.5H89.9602V16.2273H94.8807ZM98.929 39.5V16.2273H114.611V20.2841H103.849V25.8295H113.804V29.8864H103.849V35.4432H114.656V39.5H98.929ZM118.523 39.5V16.2273H127.705C129.462 16.2273 130.962 16.5417 132.205 17.1705C133.455 17.7917 134.405 18.6742 135.057 19.8182C135.716 20.9545 136.045 22.2917 136.045 23.8295C136.045 25.375 135.712 26.7045 135.045 27.8182C134.379 28.9242 133.413 29.7727 132.148 30.3636C130.89 30.9545 129.367 31.25 127.58 31.25H121.432V27.2955H126.784C127.723 27.2955 128.504 27.1667 129.125 26.9091C129.746 26.6515 130.208 26.2652 130.511 25.75C130.822 25.2348 130.977 24.5947 130.977 23.8295C130.977 23.0568 130.822 22.4053 130.511 21.875C130.208 21.3447 129.742 20.9432 129.114 20.6705C128.492 20.3902 127.708 20.25 126.761 20.25H123.443V39.5H118.523ZM131.091 28.9091L136.875 39.5H131.443L125.784 28.9091H131.091ZM143.102 16.2273L148.727 33.9091H148.943L154.58 16.2273H160.034L152.011 39.5H145.67L137.636 16.2273H143.102ZM167.756 16.2273V39.5H162.835V16.2273H167.756ZM171.804 39.5V16.2273H187.486V20.2841H176.724V25.8295H186.679V29.8864H176.724V35.4432H187.531V39.5H171.804ZM196.636 39.5L189.977 16.2273H195.352L199.205 32.3977H199.398L203.648 16.2273H208.25L212.489 32.4318H212.693L216.545 16.2273H221.92L215.261 39.5H210.466L206.034 24.2841H205.852L201.432 39.5H196.636Z" fill="url(#paint1_linear_185_596)"/>
<defs>
<linearGradient id="paint0_linear_185_596" x1="56" y1="56" x2="-7.37739" y2="44.9006" gradientUnits="userSpaceOnUse">
<stop offset="0.2" stop-color="#564FCC"/>
<stop offset="1" stop-color="#413B99"/>
</linearGradient>
<linearGradient id="paint1_linear_185_596" x1="223" y1="47.5" x2="100.158" y2="-40.2087" gradientUnits="userSpaceOnUse">
<stop offset="0.2" stop-color="#564FCC"/>
<stop offset="1" stop-color="#413B99"/>
</linearGradient>
</defs>
</svg>
