<svg width="56" height="56" viewBox="0 0 56 56" fill="none" xmlns="http://www.w3.org/2000/svg">
    <circle cx="28" cy="28" r="28" fill="url(#paint0_linear_125_554)"/>
    <mask id="path-2-inside-1_125_554" fill="white">
        <path d="M27.7211 14.7633C27.2948 14.8752 26.9377 15.0937 26.65 15.4081C25.8293 16.3087 25.8293 17.6143 26.6553 18.4883C26.9591 18.808 27.2522 18.9999 27.5985 19.1011L27.8224 19.1704V20.5773V21.9788H23.7403C19.2426 21.9788 19.3758 21.9682 18.6617 22.3145C18.1715 22.5543 17.5586 23.1619 17.3082 23.6628C16.9938 24.2863 16.9511 24.5421 16.9511 25.8104V26.9348H16.722C15.8214 26.9348 15.1659 27.3185 14.8248 28.0486L14.6863 28.347V30.1589V31.9708L14.8355 32.2745C15.0487 32.7115 15.475 33.0845 15.9226 33.2231C16.1145 33.2817 16.4182 33.3297 16.6101 33.3297H16.9511V34.4541C16.9511 35.7011 16.9938 35.9782 17.2869 36.5804C17.4947 37.0014 18.0489 37.6036 18.4592 37.8487C18.8163 38.0672 19.3758 38.259 19.7862 38.307L20.0899 38.3443L20.1059 40.0283L20.1219 41.7069L20.2764 41.8401C20.3884 41.9361 20.4789 41.968 20.5962 41.9521C20.7028 41.9361 21.71 41.2966 23.4259 40.1508L26.0904 38.3656L31.5793 38.339L37.0682 38.3123L37.4146 38.1951C38.4751 37.8327 39.3011 36.9534 39.5676 35.9089C39.6315 35.6585 39.6528 35.3067 39.6528 34.4541V33.3297H39.9939C40.1857 33.3297 40.4895 33.2817 40.6813 33.2231C41.129 33.0845 41.5553 32.7115 41.7685 32.2745L41.9177 31.9708V30.1589V28.347L41.7791 28.0486C41.4381 27.3185 40.7826 26.9348 39.882 26.9348H39.6528V25.8104C39.6528 24.5368 39.6102 24.2703 39.2905 23.6575C39.0347 23.1619 38.4218 22.5437 37.9475 22.3145C37.2441 21.9682 37.3773 21.9788 32.8743 21.9788H28.7816V20.5773V19.1704L29.0107 19.1065C29.3571 19.0052 29.6342 18.8187 29.9433 18.4936C30.7747 17.6143 30.78 16.3087 29.954 15.4081C29.3998 14.8006 28.5258 14.5448 27.7211 14.7633ZM28.739 15.6692C29.2878 15.8557 29.6449 16.3567 29.6502 16.9429C29.6502 17.3692 29.517 17.6676 29.2079 17.9447C28.6697 18.4297 27.9343 18.4297 27.396 17.9447C27.087 17.6676 26.9537 17.3692 26.9537 16.9429C26.9591 16.0103 27.8597 15.3655 28.739 15.6692ZM37.4733 23.1086C37.9689 23.3537 38.3152 23.7054 38.5497 24.2064L38.7203 24.5634V30.1322V35.7011L38.5497 36.0635C38.3472 36.4898 37.9422 36.9321 37.5745 37.1346C37.0256 37.433 37.0523 37.433 31.2862 37.433C26.2769 37.433 25.9732 37.4384 25.7707 37.5343C25.6534 37.5876 24.5716 38.291 23.362 39.101C22.1576 39.911 21.1344 40.5931 21.0865 40.6091C21.0118 40.6411 21.0012 40.5132 21.0012 39.3408C21.0012 38.0725 20.9959 38.0299 20.8786 37.854C20.7134 37.6036 20.4363 37.433 20.2072 37.433C19.8768 37.433 19.2959 37.2838 19.0348 37.1346C18.5285 36.8415 18.1502 36.3832 17.9636 35.8396C17.8571 35.5146 17.8571 35.4666 17.8677 30.0363L17.8837 24.5634L18.0542 24.2064C18.3367 23.6042 18.7896 23.2045 19.4291 22.9807C19.6796 22.8954 20.2498 22.8901 28.3872 22.9007L37.0736 22.9114L37.4733 23.1086ZM16.9405 30.1429L16.9511 32.4237H16.6474C16.253 32.4237 15.9439 32.2852 15.7468 32.0187L15.5922 31.8215L15.5762 30.2175C15.5602 28.6401 15.5656 28.6081 15.6828 28.379C15.88 27.9953 16.1784 27.8408 16.6847 27.8567L16.9245 27.8674L16.9405 30.1429ZM40.5534 27.9687C40.7506 28.0752 40.9158 28.2831 40.9904 28.5282C41.0277 28.6508 41.0384 29.2743 41.0277 30.2708L41.0117 31.8215L40.8572 32.0187C40.66 32.2852 40.3509 32.4237 39.9619 32.4237H39.6528V30.1695C39.6528 28.9279 39.6688 27.894 39.6955 27.8727C39.7541 27.8088 40.3776 27.8781 40.5534 27.9687Z"/>
    </mask>
    <path d="M27.7211 14.7633C27.2948 14.8752 26.9377 15.0937 26.65 15.4081C25.8293 16.3087 25.8293 17.6143 26.6553 18.4883C26.9591 18.808 27.2522 18.9999 27.5985 19.1011L27.8224 19.1704V20.5773V21.9788H23.7403C19.2426 21.9788 19.3758 21.9682 18.6617 22.3145C18.1715 22.5543 17.5586 23.1619 17.3082 23.6628C16.9938 24.2863 16.9511 24.5421 16.9511 25.8104V26.9348H16.722C15.8214 26.9348 15.1659 27.3185 14.8248 28.0486L14.6863 28.347V30.1589V31.9708L14.8355 32.2745C15.0487 32.7115 15.475 33.0845 15.9226 33.2231C16.1145 33.2817 16.4182 33.3297 16.6101 33.3297H16.9511V34.4541C16.9511 35.7011 16.9938 35.9782 17.2869 36.5804C17.4947 37.0014 18.0489 37.6036 18.4592 37.8487C18.8163 38.0672 19.3758 38.259 19.7862 38.307L20.0899 38.3443L20.1059 40.0283L20.1219 41.7069L20.2764 41.8401C20.3884 41.9361 20.4789 41.968 20.5962 41.9521C20.7028 41.9361 21.71 41.2966 23.4259 40.1508L26.0904 38.3656L31.5793 38.339L37.0682 38.3123L37.4146 38.1951C38.4751 37.8327 39.3011 36.9534 39.5676 35.9089C39.6315 35.6585 39.6528 35.3067 39.6528 34.4541V33.3297H39.9939C40.1857 33.3297 40.4895 33.2817 40.6813 33.2231C41.129 33.0845 41.5553 32.7115 41.7685 32.2745L41.9177 31.9708V30.1589V28.347L41.7791 28.0486C41.4381 27.3185 40.7826 26.9348 39.882 26.9348H39.6528V25.8104C39.6528 24.5368 39.6102 24.2703 39.2905 23.6575C39.0347 23.1619 38.4218 22.5437 37.9475 22.3145C37.2441 21.9682 37.3773 21.9788 32.8743 21.9788H28.7816V20.5773V19.1704L29.0107 19.1065C29.3571 19.0052 29.6342 18.8187 29.9433 18.4936C30.7747 17.6143 30.78 16.3087 29.954 15.4081C29.3998 14.8006 28.5258 14.5448 27.7211 14.7633ZM28.739 15.6692C29.2878 15.8557 29.6449 16.3567 29.6502 16.9429C29.6502 17.3692 29.517 17.6676 29.2079 17.9447C28.6697 18.4297 27.9343 18.4297 27.396 17.9447C27.087 17.6676 26.9537 17.3692 26.9537 16.9429C26.9591 16.0103 27.8597 15.3655 28.739 15.6692ZM37.4733 23.1086C37.9689 23.3537 38.3152 23.7054 38.5497 24.2064L38.7203 24.5634V30.1322V35.7011L38.5497 36.0635C38.3472 36.4898 37.9422 36.9321 37.5745 37.1346C37.0256 37.433 37.0523 37.433 31.2862 37.433C26.2769 37.433 25.9732 37.4384 25.7707 37.5343C25.6534 37.5876 24.5716 38.291 23.362 39.101C22.1576 39.911 21.1344 40.5931 21.0865 40.6091C21.0118 40.6411 21.0012 40.5132 21.0012 39.3408C21.0012 38.0725 20.9959 38.0299 20.8786 37.854C20.7134 37.6036 20.4363 37.433 20.2072 37.433C19.8768 37.433 19.2959 37.2838 19.0348 37.1346C18.5285 36.8415 18.1502 36.3832 17.9636 35.8396C17.8571 35.5146 17.8571 35.4666 17.8677 30.0363L17.8837 24.5634L18.0542 24.2064C18.3367 23.6042 18.7896 23.2045 19.4291 22.9807C19.6796 22.8954 20.2498 22.8901 28.3872 22.9007L37.0736 22.9114L37.4733 23.1086ZM16.9405 30.1429L16.9511 32.4237H16.6474C16.253 32.4237 15.9439 32.2852 15.7468 32.0187L15.5922 31.8215L15.5762 30.2175C15.5602 28.6401 15.5656 28.6081 15.6828 28.379C15.88 27.9953 16.1784 27.8408 16.6847 27.8567L16.9245 27.8674L16.9405 30.1429ZM40.5534 27.9687C40.7506 28.0752 40.9158 28.2831 40.9904 28.5282C41.0277 28.6508 41.0384 29.2743 41.0277 30.2708L41.0117 31.8215L40.8572 32.0187C40.66 32.2852 40.3509 32.4237 39.9619 32.4237H39.6528V30.1695C39.6528 28.9279 39.6688 27.894 39.6955 27.8727C39.7541 27.8088 40.3776 27.8781 40.5534 27.9687Z"
          stroke="white" stroke-width="1.808" mask="url(#path-2-inside-1_125_554)"/>
    <path d="M21.0546 28.7218C21.0618 28.4787 21.1069 28.1991 21.2245 27.9776V27.9767C21.5176 27.4192 22.0456 27.0588 22.6259 26.9825C22.4942 26.9926 22.3786 27.0121 22.291 27.0401C21.7716 27.2113 21.2944 27.6797 21.124 28.1661C21.0866 28.2772 21.0582 28.4814 21.0546 28.7218ZM24.1103 27.4767C23.9431 27.3101 23.7402 27.1729 23.5019 27.0802C23.4445 27.0586 23.3767 27.0413 23.3017 27.0255C23.3502 27.038 23.3991 27.0506 23.4472 27.0675L23.4501 27.0685C23.7052 27.1598 23.9281 27.3 24.1103 27.4767ZM24.2392 27.6173C24.2363 27.6137 24.2333 27.6101 24.2304 27.6066C24.2334 27.6101 24.2362 27.6137 24.2392 27.6173ZM24.5585 29.339C24.6613 29.0193 24.6728 28.6795 24.5976 28.3575C24.6135 28.4307 24.6257 28.5055 24.6328 28.5821C24.6575 28.8499 24.6308 29.1048 24.5585 29.339ZM21.4374 29.9161C21.3491 29.8073 21.2707 29.6877 21.205 29.5577L21.2031 29.5538C21.1163 29.377 21.0732 29.1638 21.0585 28.961C21.0692 29.1424 21.0941 29.2945 21.1249 29.3858C21.1931 29.5788 21.302 29.7575 21.4374 29.9161ZM24.5009 29.5001C24.5125 29.4734 24.522 29.4461 24.5322 29.4191C24.5223 29.4463 24.5121 29.4734 24.5009 29.5001ZM23.7929 30.3194C23.813 30.3066 23.8336 30.2942 23.8535 30.2804C23.8337 30.2938 23.8134 30.3066 23.7929 30.3194ZM23.5859 30.4327C23.6375 30.4092 23.6877 30.3828 23.7372 30.3536C23.6879 30.3822 23.6379 30.4083 23.5859 30.4327ZM22.8339 30.586C23.0454 30.586 23.2384 30.5567 23.4179 30.4982C23.3928 30.5058 23.3668 30.5135 23.3398 30.5196C23.1917 30.5532 23.0371 30.5577 22.8661 30.5577C22.5584 30.5577 22.2688 30.4995 22.0087 30.3732C22.2643 30.5082 22.5489 30.586 22.8339 30.586ZM23.5185 30.462C23.5276 30.4584 23.5368 30.4551 23.5458 30.4513C23.5369 30.4551 23.5276 30.4583 23.5185 30.462Z"
          fill="white" stroke="white" stroke-width="0.904"/>
    <path d="M34.7243 27.2451C34.5755 27.1514 34.4127 27.077 34.237 27.0312L34.2331 27.0303C33.8979 26.94 33.5151 26.9507 33.2204 27.042C33.2044 27.0471 33.1892 27.0541 33.1735 27.0596C33.3818 26.9904 33.6289 26.9727 33.8395 26.9834C34.0636 26.9948 34.3249 27.0399 34.5319 27.1396L34.5329 27.1387C34.6002 27.1704 34.6634 27.2072 34.7243 27.2451ZM33.0593 27.1015C33.0484 27.106 33.0377 27.1106 33.027 27.1152C33.0377 27.1105 33.0485 27.1061 33.0593 27.1015ZM32.3884 27.5937C32.5377 27.417 32.7247 27.2663 32.9479 27.1533C32.7295 27.2601 32.5461 27.4038 32.3884 27.5937ZM34.8259 27.3135C34.8116 27.303 34.7975 27.2922 34.7829 27.2822C34.7976 27.2922 34.8115 27.3031 34.8259 27.3135ZM34.9401 27.4023C34.9303 27.3939 34.9198 27.3862 34.9099 27.3779C34.9199 27.3861 34.9303 27.3939 34.9401 27.4023ZM32.2653 27.7578C32.2978 27.7089 32.3323 27.6611 32.3698 27.6152C32.3336 27.6603 32.2988 27.7076 32.2653 27.7578ZM33.7292 30.581C34.651 30.6022 35.4783 29.9084 35.5622 28.9228V28.9219C35.599 28.4791 35.4691 28.0545 35.2243 27.7148C35.433 28.0121 35.5446 28.3737 35.5485 28.7685V28.7734C35.5485 28.9377 35.5426 29.0871 35.5056 29.2373C35.4676 29.3913 35.4038 29.5187 35.3317 29.6484C35.003 30.2458 34.372 30.5857 33.7292 30.581ZM31.9811 28.4775C32.0201 28.2449 32.1035 28.0193 32.2282 27.8154C32.1847 27.8854 32.1421 27.9592 32.1032 28.039L32.1022 28.04L32.0231 28.2119C32.0078 28.2503 32.0009 28.2751 31.9958 28.3027C31.9883 28.3432 31.9838 28.3935 31.9811 28.4775ZM32.1872 29.6787C32.0882 29.5042 32.0215 29.3162 31.986 29.123C31.9889 29.1726 31.9915 29.2096 31.9968 29.2412C32.0071 29.303 32.0225 29.3518 32.0837 29.4814L32.0856 29.4844C32.117 29.5523 32.1509 29.6171 32.1872 29.6787ZM32.5407 30.1162C32.5524 30.1267 32.5649 30.1363 32.5768 30.1465C32.5648 30.1363 32.5524 30.1266 32.5407 30.1162ZM32.6696 30.2207C32.6861 30.2329 32.7025 30.2452 32.7194 30.2568C32.7024 30.2451 32.686 30.2328 32.6696 30.2207ZM32.8561 30.3428C32.8658 30.3482 32.8757 30.3532 32.8854 30.3584C32.8758 30.353 32.8657 30.3483 32.8561 30.3428ZM33.5954 30.5732C33.6261 30.5762 33.6566 30.5786 33.6872 30.5801C33.6565 30.5791 33.626 30.5758 33.5954 30.5732Z"
          fill="white" stroke="white" stroke-width="0.904"/>
    <path d="M29.6691 33.0636C29.9316 32.9564 30.1546 32.8189 30.3351 32.6505L30.4201 32.5656C30.4217 32.5639 30.4234 32.5614 30.425 32.5597C30.1946 32.7814 29.9453 32.9461 29.6691 33.0636ZM26.4191 32.7687C26.4342 32.7801 26.4497 32.7909 26.465 32.8019C26.4497 32.791 26.4343 32.7801 26.4191 32.7687ZM26.5334 32.8498C26.5515 32.8619 26.5698 32.8735 26.5881 32.8849C26.5697 32.8734 26.5515 32.8618 26.5334 32.8498ZM26.9807 33.0802C27.0123 33.0931 27.0435 33.1066 27.0754 33.1183C27.0431 33.1069 27.0122 33.0928 26.9807 33.0802ZM29.5344 33.1164C29.5619 33.1068 29.5887 33.0963 29.6154 33.0861C29.5887 33.0967 29.5616 33.1066 29.5344 33.1164ZM28.3019 33.3039C28.4111 33.3039 28.5169 33.2999 28.6193 33.2931C28.5168 33.2994 28.411 33.3019 28.3019 33.3019C27.8722 33.3019 27.4916 33.2531 27.1506 33.1437C27.4804 33.2539 27.8365 33.3039 28.3019 33.3039ZM29.2697 33.1955C29.3036 33.1871 29.3365 33.1764 29.3693 33.1671C29.3363 33.1767 29.3035 33.187 29.2697 33.1955ZM28.9748 33.255C28.9922 33.2523 29.0093 33.2482 29.0266 33.2453C29.0093 33.2482 28.9922 33.2524 28.9748 33.255ZM28.632 33.2921C28.6774 33.289 28.7218 33.2829 28.7658 33.2785C28.7217 33.2827 28.6773 33.2892 28.632 33.2921Z"
          fill="white" stroke="white" stroke-width="0.904"/>
    <defs>
        <linearGradient id="paint0_linear_125_554" x1="56" y1="56" x2="-7.37739" y2="44.9006"
                        gradientUnits="userSpaceOnUse">
            <stop offset="0.2" stop-color="#564FCC"/>
            <stop offset="1" stop-color="#413B99"/>
        </linearGradient>
    </defs>
</svg>
