<?xml version="1.0" standalone="no"?>
<!DOCTYPE svg PUBLIC "-//W3C//DTD SVG 20010904//EN"
 "http://www.w3.org/TR/2001/REC-SVG-20010904/DTD/svg10.dtd">
<svg version="1.0" xmlns="http://www.w3.org/2000/svg"
 width="1024.000000pt" height="1024.000000pt" viewBox="0 0 1024.000000 1024.000000"
 preserveAspectRatio="xMidYMid meet">

<g transform="translate(0.000000,1024.000000) scale(0.100000,-0.100000)"
fill="#000000" stroke="none">
<path d="M4991 8615 c-302 -85 -452 -412 -316 -691 44 -90 146 -190 229 -224
l56 -24 0 -392 0 -393 -852 -3 -853 -3 -98 -27 c-118 -33 -280 -108 -380 -177
-310 -214 -507 -591 -507 -968 l0 -83 -130 0 c-106 0 -139 -4 -185 -21 -77
-29 -156 -104 -197 -187 l-33 -67 0 -560 0 -560 28 -60 c37 -79 104 -147 181
-181 55 -25 74 -28 199 -32 l137 -4 0 -77 c0 -150 43 -340 110 -488 109 -240
350 -477 598 -587 75 -34 217 -75 315 -91 l37 -6 0 -117 c1 -176 38 -240 134
-230 45 5 107 43 418 249 l148 98 1467 3 1468 3 100 27 c271 72 507 229 670
447 142 189 219 406 232 654 l6 117 106 0 c63 0 131 6 166 15 119 31 219 127
256 246 18 56 19 100 19 574 0 471 -2 518 -18 573 -33 103 -107 189 -207 237
-32 15 -68 20 -181 23 l-141 4 -7 121 c-3 67 -13 154 -21 192 -96 449 -419
791 -863 913 l-97 27 -852 3 -853 3 0 392 0 392 63 29 c130 61 240 208 267
356 41 225 -98 465 -312 540 -83 29 -231 36 -307 15z m2005 -2085 c250 -63
459 -244 565 -491 71 -164 69 -124 69 -1238 0 -1097 1 -1078 -60 -1226 -87
-207 -277 -396 -474 -470 -168 -63 -22 -59 -1981 -57 -1288 1 -1795 5 -1835
13 -273 56 -506 254 -614 522 -63 156 -61 123 -61 1232 0 1120 -4 1054 67
1223 104 249 345 451 600 501 24 5 853 9 1844 10 1768 1 1802 1 1880 -19z"/>
<path d="M3820 5614 c-189 -40 -363 -180 -455 -364 -50 -101 -60 -151 -60
-290 1 -111 4 -134 29 -205 37 -107 87 -187 166 -265 126 -125 254 -180 440
-187 134 -6 203 8 315 62 165 80 284 220 350 410 26 74 32 245 11 336 -78 352
-439 580 -796 503z m253 -429 c86 -41 141 -130 140 -225 -1 -166 -156 -283
-314 -236 -70 20 -121 63 -154 131 -70 142 -1 295 155 346 39 13 131 5 173
-16z"/>
<path d="M6134 5616 c-318 -73 -539 -362 -521 -685 9 -181 85 -342 215 -463
69 -63 192 -129 287 -153 78 -20 240 -19 318 1 216 56 398 228 472 445 25 74
29 99 29 204 0 140 -19 215 -86 330 -48 82 -161 196 -240 243 -135 80 -327
111 -474 78z m251 -430 c197 -93 192 -359 -9 -452 -199 -93 -416 125 -325 326
59 130 207 186 334 126z"/>
</g>
</svg>
