<svg width="24" height="24" viewBox="0 0 24 24" fill="none" xmlns="http://www.w3.org/2000/svg">
<path d="M3.93844 8.06304C3.1785 8.06267 2.56257 8.6801 2.56238 9.43948L2.56332 15.2025C2.56319 15.3833 2.59871 15.5624 2.66785 15.7295C2.73699 15.8966 2.83838 16.0484 2.96623 16.1762C3.09409 16.3041 3.24589 16.4055 3.41297 16.4747C3.58005 16.5438 3.75912 16.5794 3.93994 16.5793C4.12074 16.5795 4.29981 16.544 4.46687 16.4749C4.63394 16.4058 4.78573 16.3044 4.91354 16.1765C5.04135 16.0486 5.14267 15.8968 5.2117 15.7297C5.28073 15.5625 5.31611 15.3835 5.31582 15.2027V9.43873C5.31542 9.0737 5.17012 8.72377 4.91185 8.46581C4.65358 8.20786 4.30347 8.06299 3.93844 8.06304ZM15.0371 2.88767L15.9977 1.1336C16.0222 1.08911 16.028 1.03672 16.0139 0.987937C15.9998 0.939151 15.9669 0.897945 15.9225 0.873354C15.878 0.849278 15.8258 0.843789 15.7772 0.858087C15.7287 0.872384 15.6877 0.905306 15.6634 0.949666L14.6931 2.7221C13.8767 2.35873 12.963 2.1551 11.9963 2.15604C11.0321 2.1551 10.1188 2.35817 9.30582 2.71948L8.33438 0.951541C8.32252 0.929473 8.3064 0.909978 8.28695 0.894184C8.2675 0.87839 8.24512 0.866611 8.22109 0.859531C8.19705 0.852451 8.17186 0.850209 8.14695 0.852936C8.12205 0.855662 8.09793 0.863304 8.076 0.875416C8.05386 0.88725 8.0343 0.903381 8.01847 0.922864C8.00264 0.942348 7.99085 0.964793 7.9838 0.988886C7.97675 1.01298 7.97457 1.03824 7.97739 1.06318C7.98022 1.08813 7.98799 1.11226 8.00025 1.13417L8.96119 2.8871C7.07307 3.86079 5.79732 5.71517 5.79844 7.84423L18.1956 7.84273C18.1959 5.71442 16.9224 3.86379 15.0371 2.88767ZM9.17663 5.59835C9.03876 5.59828 8.90656 5.54344 8.80913 5.4459C8.71169 5.34835 8.65699 5.2161 8.65707 5.07823C8.65714 4.94036 8.71198 4.80816 8.80952 4.71073C8.90707 4.61329 9.03932 4.55859 9.17719 4.55867C9.31508 4.55891 9.44725 4.61379 9.54477 4.71127C9.64229 4.80875 9.69721 4.9409 9.6975 5.07879C9.69726 5.21674 9.64226 5.34895 9.54459 5.44637C9.44692 5.54379 9.31458 5.59845 9.17663 5.59835ZM14.8215 5.59742C14.7533 5.59747 14.6857 5.58406 14.6226 5.55797C14.5595 5.53188 14.5022 5.49361 14.4539 5.44536C14.4057 5.39711 14.3674 5.33981 14.3413 5.27675C14.3152 5.2137 14.3017 5.14611 14.3018 5.07785C14.3025 4.9401 14.3575 4.80818 14.4548 4.71068C14.5521 4.61319 14.6839 4.55796 14.8217 4.55698C14.9593 4.55811 15.091 4.61345 15.1881 4.71098C15.2852 4.80852 15.34 4.9404 15.3405 5.07804C15.3406 5.14624 15.3272 5.21378 15.3012 5.2768C15.2751 5.33982 15.2369 5.39709 15.1887 5.44533C15.1405 5.49357 15.0832 5.53183 15.0202 5.55792C14.9572 5.58402 14.8897 5.59744 14.8215 5.59742ZM5.84907 8.3231L5.85113 17.2547C5.85091 17.4476 5.88874 17.6386 5.96246 17.8169C6.03618 17.9951 6.14435 18.1571 6.28076 18.2935C6.41717 18.4299 6.57914 18.538 6.75741 18.6117C6.93567 18.6854 7.12673 18.7232 7.31963 18.723L8.31957 18.7234L8.32069 21.7729C8.3205 22.5322 8.93775 23.1495 9.696 23.1495C10.4565 23.1495 11.0726 22.5317 11.0728 21.7719L11.0721 18.7232L12.93 18.7226L12.9308 21.7719C12.9308 22.5307 13.5482 23.1493 14.3066 23.1478C15.0671 23.1484 15.6836 22.5305 15.6834 21.7708L15.6825 18.7222L16.686 18.7215C16.8789 18.7215 17.07 18.6835 17.2482 18.6097C17.4264 18.5359 17.5884 18.4277 17.7248 18.2913C17.8613 18.1549 17.9695 17.993 18.0434 17.8148C18.1172 17.6365 18.1552 17.4455 18.1553 17.2526L18.1536 8.32104L5.84907 8.3231ZM21.4367 9.43742C21.4367 9.25667 21.4011 9.07769 21.332 8.9107C21.2628 8.74372 21.1614 8.592 21.0336 8.46421C20.9058 8.33642 20.754 8.23507 20.587 8.16594C20.42 8.09682 20.241 8.06128 20.0603 8.06135C19.3003 8.0606 18.6846 8.67767 18.6846 9.43798L18.6857 15.2014C18.6856 15.3821 18.7211 15.5611 18.7902 15.7281C18.8593 15.8951 18.9607 16.0468 19.0885 16.1747C19.2163 16.3025 19.368 16.4038 19.535 16.4729C19.702 16.542 19.881 16.5775 20.0618 16.5774C20.2425 16.5774 20.4215 16.5418 20.5885 16.4726C20.7555 16.4035 20.9073 16.302 21.035 16.1742C21.1628 16.0463 21.2641 15.8945 21.3332 15.7274C21.4023 15.5604 21.4378 15.3814 21.4376 15.2006L21.4367 9.43742Z" fill="#A4C439"/>
</svg>
