<svg width="24" height="24" viewBox="0 0 24 24" fill="none" xmlns="http://www.w3.org/2000/svg">
<path d="M12.2437 10.3875C12.7687 10.875 13.0312 11.5312 13.0312 12.375C13.0312 13.2187 12.7687 13.8937 12.2625 14.4C11.7562 14.8875 10.9687 15.15 9.93749 15.15H8.09999V9.69373H9.99374C10.9687 9.69373 11.7187 9.91873 12.2437 10.3875ZM11.3437 13.6312C11.6437 13.35 11.7937 12.9375 11.7937 12.3937C11.7937 11.85 11.6437 11.4375 11.3437 11.1375C11.0437 10.8562 10.575 10.6875 9.95624 10.6875H9.24374V14.0625H10.0312C10.6125 14.0625 11.0437 13.9125 11.3437 13.6312ZM17.3625 15.15H16.275V14.625C15.9562 15 15.6 15.1875 15.15 15.1875C14.7 15.1875 14.325 15.0562 14.025 14.7937C13.725 14.5312 13.575 14.1937 13.575 13.7625C13.575 13.3312 13.725 13.0125 14.0437 12.8062C14.3625 12.6 14.7937 12.4875 15.3375 12.4875H16.2V12.45C16.2 12 15.975 11.775 15.4875 11.775C15.2812 11.775 15.075 11.8125 14.85 11.8875C14.625 11.9625 14.4375 12.075 14.2687 12.1875L13.7437 11.4187C14.3062 11.0062 14.925 10.8187 15.6375 10.8187C16.1437 10.8187 16.5562 10.95 16.875 11.2125C17.1937 11.475 17.3437 11.8687 17.3437 12.4312V15.15H17.3625ZM16.1812 13.5375V13.3687H15.45C14.9812 13.3687 14.7375 13.5 14.7375 13.7812C14.7375 13.9312 14.7937 14.0437 14.9062 14.1187C15.0187 14.1937 15.1687 14.2312 15.3937 14.2312C15.6 14.2312 15.7875 14.175 15.9375 14.0437C16.1062 13.9125 16.1812 13.7437 16.1812 13.5375ZM20.4562 11.9625C20.1 11.9625 19.8187 12.075 19.65 12.3375C19.4812 12.5812 19.3687 12.9187 19.3687 13.3312V15.1687H18.2062V10.95H19.3687V11.4937C19.5187 11.325 19.7437 11.175 19.9687 11.0625C20.1937 10.95 20.4562 10.875 20.7 10.875V11.9812L20.4562 11.9625ZM22.575 11.7937V13.65C22.575 13.8187 22.6125 13.9312 22.7062 14.025C22.7812 14.1187 22.8937 14.1562 23.0062 14.1562C23.2312 14.1562 23.4187 14.0625 23.5687 13.8562L24 14.6812C23.6437 15.0187 23.25 15.1875 22.8562 15.1875C22.4437 15.1875 22.1062 15.0562 21.825 14.7937C21.5437 14.5312 21.4125 14.1562 21.4125 13.7062V9.69373H22.575V10.875H23.8125L23.175 11.8125L22.575 11.7937ZM4.33124 14.3437L4.85624 14.1L1.33124 10.575V13.1812C1.33124 13.2 1.33124 13.2375 1.34999 13.275L4.33124 14.3437ZM4.25624 10.3875C4.21874 10.3875 4.18124 10.3687 4.14374 10.3687H1.53749L5.06249 13.8937L5.30624 13.35L4.25624 10.3875ZM4.03124 10.0875H4.18124C4.25624 10.0875 4.33124 10.1062 4.40624 10.125H4.42499L4.31249 9.84373L3.59999 9.13123C3.43124 8.96248 3.20624 8.92498 3.09374 9.01873L1.49999 10.0875H4.03124Z" fill="#00A8E1"/>
<path d="M5.10002 10.6126C4.96877 10.4813 4.74377 10.3501 4.51877 10.2938L5.60627 13.3688L5.28752 14.1001L5.36252 14.1751L6.09377 13.9313V11.6063L5.10002 10.6126ZM1.06877 13.1813V10.5376L0.0562657 12.0751C-0.0374843 12.1876 1.56909e-05 12.4126 0.168766 12.5813L0.862516 13.3126L1.08752 13.3876C1.06877 13.3126 1.06877 13.2563 1.06877 13.1813ZM4.35002 14.6438L4.29377 14.6251L1.35002 13.5751C1.42502 13.7626 1.51877 13.9688 1.65002 14.0813L2.68127 15.0938H4.96877L5.23127 14.2313L4.35002 14.6438Z" fill="#00A8E1"/>
</svg>
