<svg width="24" height="24" viewBox="0 0 24 24" fill="none" xmlns="http://www.w3.org/2000/svg">
<path d="M0 7.98749H3.7875L0 11.7187V7.98749ZM0 16.0125L8.025 7.98749H4.05L0 11.9812V16.0125ZM8.025 16.0125L4.05 12.225L0.2625 16.0125H8.025ZM9.375 14.1V9.82499H10.3312V11.6437L12.075 9.82499H13.1625L11.4188 11.6437L13.1625 14.1H12.075L10.8 12.3187L10.3312 12.7875V14.1H9.375Z" fill="#7F6CB1"/>
<path d="M14.5313 10.8375C13.575 10.8375 12.8063 11.5687 12.8063 12.4687C12.8063 13.3687 13.575 14.1 14.5313 14.1C15.4875 14.1 16.2563 13.3687 16.2563 12.4687C16.2563 11.5687 15.4875 10.8375 14.5313 10.8375ZM14.5313 13.3875C14.025 13.3875 13.6125 12.975 13.6125 12.4687C13.6125 11.9625 14.025 11.55 14.5313 11.55C15.0375 11.55 15.45 11.9625 15.45 12.4687C15.45 12.975 15.0375 13.3875 14.5313 13.3875Z" fill="#7F6CB1"/>
<path d="M16.4813 10.0125H17.4375V10.8563H18.1875V11.6438H17.4375V13.1813C17.4375 13.1813 17.7188 13.575 18.1875 13.1813V14.025C18.1875 14.025 17.4375 14.4 16.7813 14.025C16.7813 14.025 16.4813 13.725 16.4813 13.3688V11.6438H16.1063V10.8188L16.4813 10.8375V10.0125ZM18.4688 9.63751H19.3875V14.0813H18.4688V9.63751ZM19.725 9.63751H20.6625V10.425H19.725V9.63751ZM19.725 10.8563H20.6625V14.1H19.725V10.8563ZM20.9813 10.8563H21.9375V11.3625C21.9375 11.3625 22.8188 10.0125 23.8875 11.3625L23.9813 11.6438V14.1H23.0438V12.1125C23.0438 12.1125 22.5188 11.1188 21.9375 12.1125V14.1H20.9813V10.8563Z" fill="#7F6CB1"/>
</svg>
