<svg width="29" height="29" viewBox="0 0 29 29" fill="none" xmlns="http://www.w3.org/2000/svg">
    <g clip-path="url(#clip0_185_613)">
        <path d="M29 14.5C29 6.49248 22.5075 0 14.5 0C6.49248 0 0 6.49248 0 14.5C0 21.7367 5.30165 27.7358 12.2346 28.8246V18.6924H8.55196V14.5H12.2346V11.3047C12.2346 7.67107 14.4001 5.66257 17.7116 5.66257C19.298 5.66257 20.9578 5.946 20.9578 5.946V9.51441H19.1287C17.3282 9.51441 16.7654 10.6318 16.7654 11.7798V14.5H20.7865L20.1442 18.6924H16.7654V28.8246C23.6984 27.7378 29 21.7388 29 14.5Z"
              fill="#5C5C5C"/>
        <path d="M20.1442 18.6924L20.7865 14.5H16.7654V11.7799C16.7654 10.6339 17.3262 9.51445 19.1287 9.51445H20.9578V5.94603C20.9578 5.94603 19.298 5.6626 17.7116 5.6626C14.4001 5.6626 12.2345 7.66907 12.2345 11.3048V14.5H8.55194V18.6924H12.2345V28.8247C12.9727 28.9409 13.7292 29 14.5 29C15.2708 29 16.0273 28.9389 16.7654 28.8247V18.6924H20.1442Z"
              fill="#111827"/>
    </g>
    <defs>
        <clipPath id="clip0_185_613">
            <rect width="29" height="29" fill="white"/>
        </clipPath>
    </defs>
</svg>
