<svg width="25" height="25" viewBox="0 0 25 25" fill="none" xmlns="http://www.w3.org/2000/svg">
<g clip-path="url(#clip0_174_11)">
<path d="M20.6474 5.82063C20.6474 4.99081 19.9748 4.32074 19.1481 4.32074C18.3213 4.32074 17.6482 4.99081 17.6482 5.82063C17.6482 6.64741 18.3213 7.31745 19.1481 7.31745C19.9748 7.31745 20.6474 6.64741 20.6474 5.82063Z" fill="#505E6C"/>
<path d="M22.6452 17.9504C22.5897 19.1678 22.386 19.8291 22.217 20.2684C21.9899 20.8509 21.7191 21.2674 21.2798 21.7041C20.8455 22.141 20.429 22.4112 19.8465 22.6358C19.4073 22.8073 18.7434 23.0115 17.5261 23.0696C16.2101 23.1276 15.8201 23.1399 12.4829 23.1399C9.14869 23.1399 8.75562 23.1276 7.43961 23.0696C6.22233 23.0115 5.56152 22.8073 5.12219 22.6358C4.53669 22.4112 4.12333 22.141 3.6865 21.7041C3.24658 21.2674 2.97574 20.8509 2.75177 20.2684C2.58268 19.8291 2.37603 19.1678 2.32355 17.9504C2.25941 16.6344 2.24766 16.2383 2.24766 12.9078C2.24766 9.57053 2.25941 9.17751 2.32355 7.86145C2.37603 6.64418 2.58268 5.98341 2.75177 5.54038C2.97574 4.95857 3.24658 4.54456 3.6865 4.10773C4.12333 3.67155 4.53669 3.40066 5.12219 3.17365C5.56152 3.00151 6.22233 2.80036 7.43961 2.74237C8.75562 2.68434 9.14869 2.66954 12.4829 2.66954C15.8201 2.66954 16.2101 2.68434 17.5261 2.74237C18.7434 2.80036 19.4073 3.00151 19.8465 3.17365C20.429 3.40066 20.8455 3.67155 21.2798 4.10773C21.7191 4.54456 21.9899 4.95857 22.217 5.54038C22.386 5.98341 22.5897 6.64418 22.6452 7.86145C22.7063 9.17751 22.7211 9.57053 22.7211 12.9078C22.7211 16.2383 22.7063 16.6344 22.6452 17.9504ZM24.8929 7.75906C24.8318 6.42882 24.622 5.52002 24.3104 4.72845C23.9934 3.90722 23.5682 3.21126 22.8722 2.5153C22.1794 1.82245 21.4834 1.39733 20.6622 1.07651C19.8676 0.768005 18.9618 0.555746 17.6309 0.497765C16.3001 0.433583 15.875 0.421875 12.4829 0.421875C9.09373 0.421875 8.66559 0.433583 7.33474 0.497765C6.00698 0.555746 5.10183 0.768005 4.30347 1.07651C3.48535 1.39733 2.78939 1.82245 2.09653 2.5153C1.40057 3.21126 0.975454 3.90722 0.655239 4.72845C0.34673 5.52002 0.136971 6.42882 0.0727889 7.75906C0.0148076 9.08992 0 9.51562 0 12.9078C0 16.2969 0.0148076 16.722 0.0727889 18.0528C0.136971 19.3806 0.34673 20.2888 0.655239 21.0841C0.975454 21.9022 1.40057 22.6013 2.09653 23.2941C2.78939 23.987 3.48535 24.4152 4.30347 24.7354C5.10183 25.0439 6.00698 25.2537 7.33474 25.3148C8.66559 25.3759 9.09373 25.3907 12.4829 25.3907C15.875 25.3907 16.3001 25.3759 17.6309 25.3148C18.9618 25.2537 19.8676 25.0439 20.6622 24.7354C21.4834 24.4152 22.1794 23.987 22.8722 23.2941C23.5682 22.6013 23.9934 21.9022 24.3104 21.0841C24.622 20.2888 24.8318 19.3806 24.8929 18.0528C24.954 16.722 24.9688 16.2969 24.9688 12.9078C24.9688 9.51562 24.954 9.08992 24.8929 7.75906Z" fill="#505E6C"/>
<path d="M12.4829 16.6438C10.1858 16.6438 8.32191 14.783 8.32191 12.4859C8.32191 10.1852 10.1858 8.32192 12.4829 8.32192C14.7806 8.32192 16.6469 10.1852 16.6469 12.4859C16.6469 14.783 14.7806 16.6438 12.4829 16.6438ZM12.4829 6.07117C8.94199 6.07117 6.07425 8.94504 6.07425 12.4859C6.07425 16.0237 8.94199 18.8946 12.4829 18.8946C16.0237 18.8946 18.8946 16.0237 18.8946 12.4859C18.8946 8.94504 16.0237 6.07117 12.4829 6.07117Z" fill="#505E6C"/>
</g>
<defs>
<clipPath id="clip0_174_11">
<rect width="25" height="25" fill="white"/>
</clipPath>
</defs>
</svg>
