<svg width="35" height="29" viewBox="0 0 35 29" fill="none" xmlns="http://www.w3.org/2000/svg">
<g clip-path="url(#clip0_185_609)">
<path d="M32.668 27.1279C32.7418 27.1286 32.8148 27.1144 32.8828 27.086C32.9507 27.0576 33.0119 27.0156 33.0628 26.9628C33.1137 26.91 33.153 26.8474 33.1785 26.7789C33.2039 26.7104 33.2148 26.6374 33.2105 26.5646C33.2105 26.165 32.9671 25.9741 32.4676 25.9741H31.6606V28.0659H31.9642V27.1541H32.3372L32.3457 27.1652L32.9245 28.0659H33.2491L32.6263 27.1337L32.668 27.1279ZM32.317 26.9184H31.965V26.2112H32.4111C32.6416 26.2112 32.9043 26.2485 32.9043 26.5472C32.9043 26.8908 32.6385 26.9184 32.3152 26.9184" fill="#5C5C5C"/>
<path d="M24.7504 24.5065H20.4463V17.8325C20.4463 16.241 20.4176 14.1923 18.2077 14.1923C15.966 14.1923 15.623 15.9263 15.623 17.7166V24.5061H11.3189V10.7816H15.4509V12.6572H15.5087C15.9222 11.9571 16.5198 11.3812 17.2377 10.9908C17.9556 10.6004 18.767 10.4101 19.5855 10.4402C23.9479 10.4402 24.7522 13.2814 24.7522 16.9775L24.7504 24.5065ZM6.46249 8.90557C5.96849 8.90565 5.48554 8.7607 5.07474 8.48902C4.66395 8.21734 4.34376 7.83115 4.15463 7.37928C3.96551 6.92741 3.91594 6.43016 4.01223 5.9504C4.10852 5.47065 4.34633 5.02994 4.69558 4.684C5.04483 4.33807 5.48984 4.10245 5.97433 4.00694C6.45882 3.91142 6.96103 3.96031 7.41746 4.14741C7.8739 4.33452 8.26404 4.65143 8.53857 5.05809C8.81309 5.46474 8.95968 5.94287 8.95977 6.432C8.95982 6.75678 8.89527 7.07838 8.7698 7.37846C8.64433 7.67853 8.46042 7.9512 8.22853 8.18089C7.99663 8.41058 7.7213 8.5928 7.41828 8.71714C7.11527 8.84148 6.7905 8.90551 6.46249 8.90557ZM8.61453 24.5065H4.30596V10.7816H8.61453V24.5065ZM26.8962 0.00171543H2.14317C1.58134 -0.00456231 1.03996 0.21027 0.638025 0.599005C0.236092 0.98774 0.00649054 1.51857 -0.000366211 2.07486V26.6857C0.00625586 27.2423 0.235722 27.7735 0.637642 28.1626C1.03956 28.5518 1.58106 28.767 2.14317 28.7611H26.8962C27.4594 28.7681 28.0024 28.5535 28.4059 28.1643C28.8094 27.7752 29.0404 27.2434 29.0482 26.6857V2.07308C29.0402 1.51569 28.809 0.984257 28.4055 0.595532C28.002 0.206807 27.4591 -0.00741227 26.8962 -6.09995e-05" fill="#5C5C5C"/>
<path d="M32.3538 25.0425C31.8302 25.0475 31.3298 25.2576 30.9622 25.6269C30.5946 25.9962 30.3896 26.4946 30.3921 27.0131C30.3946 27.5316 30.6044 28.028 30.9756 28.3938C31.3468 28.7596 31.8492 28.9649 32.3729 28.9649C32.8966 28.9649 33.3989 28.7596 33.7701 28.3938C34.1413 28.028 34.3511 27.5316 34.3536 27.0131C34.3562 26.4946 34.1512 25.9962 33.7836 25.6269C33.416 25.2576 32.9156 25.0475 32.3919 25.0425H32.3538ZM32.3538 28.7404C32.0104 28.746 31.6729 28.6507 31.3841 28.4665C31.0954 28.2823 30.8683 28.0174 30.7315 27.7053C30.5948 27.3933 30.5546 27.0481 30.616 26.7135C30.6774 26.3788 30.8377 26.0697 31.0765 25.8252C31.3153 25.5807 31.622 25.4118 31.9578 25.3399C32.2935 25.268 32.6433 25.2963 32.9628 25.4213C33.2823 25.5462 33.5572 25.7621 33.7528 26.0417C33.9484 26.3214 34.0558 26.6521 34.0616 26.9922C34.0616 27.002 34.0616 27.0113 34.0616 27.0211C34.0712 27.4672 33.9014 27.8989 33.5897 28.2211C33.2779 28.5434 32.8497 28.7298 32.3991 28.7395H32.3543" fill="#5C5C5C"/>
</g>
<defs>
<clipPath id="clip0_185_609">
<rect width="34.3538" height="29" fill="white"/>
</clipPath>
</defs>
</svg>
