<svg width="25" height="19" viewBox="0 0 25 19" fill="none" xmlns="http://www.w3.org/2000/svg">
<path d="M24.4776 3.31076C24.1901 2.20434 23.343 1.33308 22.2673 1.03739C20.3178 0.5 12.5 0.5 12.5 0.5C12.5 0.5 4.68229 0.5 2.73266 1.03739C1.65705 1.33308 0.809881 2.20434 0.522405 3.31076C0 5.31606 0 9.5 0 9.5C0 9.5 0 13.6839 0.522405 15.6894C0.809881 16.7957 1.65705 17.6669 2.73266 17.9627C4.68229 18.5 12.5 18.5 12.5 18.5C12.5 18.5 20.3178 18.5 22.2673 17.9627C23.343 17.6669 24.1901 16.7957 24.4776 15.6894C25 13.6839 25 9.5 25 9.5C25 9.5 25 5.31606 24.4776 3.31076Z" fill="#505E6C"/>
<path d="M9.94318 13.2987L16.4773 9.50017L9.94318 5.7013V13.2987Z" fill="#243647"/>
</svg>
