<svg width="26" height="24" viewBox="0 0 26 24" fill="none" xmlns="http://www.w3.org/2000/svg">
<path d="M15.1375 0.0562744C14.9688 0.0562744 14.8 0.0937744 14.65 0.150024C14.9688 0.356274 15.1375 0.637524 15.2313 0.956274C15.2313 0.993774 15.25 1.03127 15.25 1.06877C15.25 1.10627 15.2688 1.14377 15.2688 1.18127C15.2875 1.72502 15.1188 1.80002 15.0063 2.11877C14.8188 2.53127 14.875 2.98127 15.1 3.33752C15.1188 3.37502 15.1375 3.43127 15.175 3.46877C14.9313 1.89377 16.2438 1.66877 16.4875 1.18127C16.5063 0.750024 16.15 0.468774 15.8688 0.262524C15.5875 0.0937744 15.3625 0.0562744 15.1375 0.0562744ZM17.1063 0.393774C17.0875 0.543774 17.1063 0.506274 17.0875 0.581274C17.0875 0.637524 17.0875 0.693774 17.0688 0.750024C17.05 0.806274 17.05 0.843774 17.0313 0.900024C17.0125 0.956274 16.9938 0.993774 16.975 1.05002C16.9563 1.08752 16.9375 1.12502 16.9188 1.18127C16.9 1.20002 16.8813 1.23752 16.8625 1.25627C16.8438 1.27502 16.8438 1.29377 16.825 1.31252C16.7875 1.35002 16.7688 1.40627 16.7313 1.44377L16.6188 1.55627C16.5813 1.59377 16.5438 1.63127 16.5063 1.65002C16.375 1.74377 16.225 1.81877 16.0938 1.91252C16.0563 1.95002 16 1.96877 15.9625 2.00627C15.925 2.04377 15.8875 2.06252 15.85 2.10002L15.7375 2.21252C15.7 2.25002 15.6625 2.28752 15.6438 2.34377C15.6063 2.38127 15.5875 2.43752 15.55 2.47502C15.5313 2.53127 15.5125 2.56877 15.475 2.62502C15.4563 2.68127 15.4375 2.71877 15.4188 2.77502C15.4 2.83127 15.3813 2.88752 15.3813 2.92502C15.3813 2.94377 15.3813 2.98127 15.3625 3.00002C15.3625 3.01877 15.3625 3.05627 15.3438 3.07502V3.33752C15.3438 3.39377 15.3438 3.43127 15.3625 3.48752C15.3625 3.54377 15.3813 3.58127 15.4 3.63752C15.4188 3.69377 15.4375 3.73127 15.4563 3.78752C15.475 3.82502 15.4938 3.84377 15.4938 3.88127L14.0688 3.33752C13.825 3.26252 13.6 3.20627 13.3563 3.15002C13.225 3.11252 13.0938 3.09377 12.9625 3.05627C12.5875 2.98127 12.2125 2.92502 11.8375 2.88752H11.8C11.425 2.85002 11.0688 2.83127 10.6938 2.83127C10.4125 2.83127 10.15 2.85002 9.88751 2.86877C9.51251 2.88752 9.13751 2.94377 8.76251 3.00002L8.48126 3.05627C8.29376 3.09377 8.10626 3.13127 7.91876 3.18752C7.82501 3.20627 7.73126 3.24377 7.63751 3.26252C7.54376 3.30002 7.45001 3.33752 7.37501 3.37502C7.30001 3.41252 7.24376 3.43127 7.16876 3.46877C7.15001 3.46877 7.15001 3.46877 7.13126 3.48752C7.07501 3.52502 7.01876 3.54377 6.96251 3.58127C6.94376 3.58127 6.92501 3.60002 6.92501 3.60002C6.85001 3.63752 6.79376 3.67502 6.73751 3.69377C6.70001 3.71252 6.64376 3.73127 6.60626 3.75002C6.58751 3.76877 6.56876 3.76877 6.55001 3.78752C6.49376 3.82502 6.43751 3.84377 6.38126 3.88127C6.32501 3.91877 6.26876 3.93752 6.23126 3.97502C6.19376 4.01252 6.13751 4.03127 6.10001 4.06877C6.10001 4.06877 6.08126 4.06877 6.08126 4.08752C6.04376 4.10627 6.00626 4.14377 5.96876 4.18127L5.95001 4.20002C5.91251 4.21877 5.89376 4.25627 5.85626 4.27502C5.83751 4.27502 5.83751 4.29377 5.81876 4.29377C5.78126 4.31252 5.76251 4.35002 5.72501 4.36877C5.72501 4.38752 5.70626 4.38752 5.70626 4.38752L5.59376 4.50002L5.57501 4.51877L5.46251 4.63127C5.46251 4.63127 5.46251 4.65002 5.44376 4.65002L5.35001 4.74377C5.33126 4.76252 5.31251 4.76252 5.31251 4.78127L5.20001 4.89377C5.20001 4.91252 5.18126 4.91252 5.18126 4.93127L5.03126 5.08127L5.01251 5.10002C4.91876 5.21252 4.80626 5.30627 4.69376 5.40002C4.58126 5.49377 4.46876 5.58752 4.33751 5.68127C4.20626 5.77502 4.09376 5.85002 3.96251 5.92502C3.83126 6.00002 3.70001 6.05627 3.56876 6.11252C3.43751 6.16877 3.30626 6.22502 3.17501 6.26252C2.91251 6.31877 2.65001 6.43127 2.42501 6.45002C2.42501 6.35627 2.36876 6.37502 2.31251 6.37502C2.25626 6.39377 2.20001 6.39377 2.16251 6.41252C2.10626 6.43127 2.06876 6.45002 2.01251 6.46877C1.95626 6.48752 1.91876 6.50627 1.86251 6.54377C1.82501 6.58127 1.76876 6.60002 1.73126 6.63752C1.69376 6.67502 1.63751 6.71252 1.60001 6.75002C1.56251 6.78752 1.50626 6.82502 1.46876 6.86252C1.43126 6.90002 1.39376 6.93752 1.35626 6.99377C1.31876 7.05002 1.28126 7.08752 1.26251 7.14377C1.22501 7.18127 1.20626 7.23752 1.16876 7.29377C1.15001 7.35002 1.11251 7.40627 1.09376 7.46252L1.03751 7.63127C1.01876 7.68752 1.01876 7.72502 1.00001 7.78127V7.80002C0.981262 7.85627 0.981262 7.93127 0.981262 7.96877C1.00001 7.95002 1.00001 7.98752 1.00001 8.02502V8.10003C1.00001 8.13752 1.01876 8.17502 1.01876 8.21252C1.03751 8.25002 1.03751 8.28753 1.05626 8.32502C1.07501 8.36252 1.09376 8.40002 1.13126 8.43752C1.15001 8.47502 1.18751 8.51252 1.20626 8.55002C1.24376 8.58752 1.28126 8.62502 1.31876 8.64377C1.35626 8.68127 1.39376 8.71877 1.43126 8.73752C1.58126 8.86877 1.61876 8.90627 1.80626 9.01877C1.84376 9.03752 1.86251 9.05627 1.90001 9.07502H1.91876V9.11252C1.91876 9.16877 1.93751 9.20627 1.95626 9.26252C1.97501 9.31878 1.99376 9.37502 2.01251 9.41253L2.06876 9.52502C2.06876 9.54377 2.08751 9.54377 2.08751 9.56252C2.10626 9.61877 2.14376 9.65627 2.16251 9.69378C2.20001 9.73127 2.21876 9.78753 2.25626 9.82502L2.36876 9.93752L2.48126 10.05H2.50001C2.53751 10.0875 2.57501 10.1063 2.61251 10.1438C2.65001 10.1813 2.70626 10.2 2.74376 10.2188C2.78126 10.2375 2.83751 10.275 2.89376 10.2938C2.93126 10.3125 2.96876 10.3313 3.02501 10.3313C3.02501 10.3313 3.04376 10.3313 3.04376 10.35C3.06251 10.35 3.10001 10.3688 3.11876 10.3688C3.10001 10.7063 3.10001 11.025 3.13751 11.1375C3.19376 11.2688 3.47501 10.875 3.73751 10.4438C3.70001 10.875 3.68126 11.3813 3.73751 11.5313C3.81251 11.6813 4.16876 11.1938 4.50626 10.6688C8.89376 9.65627 12.9063 12.6938 13.3375 16.9875C13.2625 16.3125 12.4375 15.9375 12.0438 16.0313C11.8563 16.4813 11.5375 17.0813 11.0313 17.4375C11.0688 17.025 11.05 16.6125 10.975 16.2C10.8438 16.7625 10.5813 17.3063 10.2063 17.7563C9.62501 17.7938 9.02501 17.5125 8.72501 17.0813C8.70626 17.0625 8.68751 17.025 8.66876 17.0063C8.65001 16.9688 8.63126 16.9125 8.61251 16.875C8.59376 16.8375 8.57501 16.7813 8.57501 16.7438V16.6125V16.5188C8.57501 16.4813 8.59376 16.425 8.61251 16.3875C8.63126 16.35 8.63126 16.2938 8.65001 16.2563C8.66876 16.2188 8.68751 16.1625 8.72501 16.125C8.83751 15.825 8.83751 15.5813 8.63126 15.45L8.51876 15.3938C8.50001 15.3938 8.46251 15.375 8.44376 15.375C8.42501 15.375 8.40626 15.3563 8.38751 15.3563C8.35001 15.3375 8.29376 15.3375 8.25626 15.3188C8.21876 15.3 8.16251 15.3 8.12501 15.3C8.08751 15.3 8.03126 15.2813 7.99376 15.2813H7.90001C7.84376 15.2813 7.80626 15.2813 7.76876 15.3C7.73126 15.3 7.67501 15.3188 7.63751 15.3188C7.60001 15.3375 7.54376 15.3375 7.50626 15.3563C7.46876 15.375 7.43126 15.3938 7.37501 15.4125L7.26251 15.4688C5.81876 16.4063 6.68126 18.6188 7.65626 19.2563C7.28126 19.3313 6.90626 19.4063 6.79376 19.4813L6.77501 19.5C7.03751 19.6688 7.31876 19.8 7.61876 19.9125C8.01251 20.0438 8.44376 20.1563 8.63126 20.2125C9.13751 20.325 9.66251 20.3625 10.1875 20.325C12.925 20.1375 15.175 18.0375 15.5875 15.3C15.6063 15.3563 15.6063 15.4125 15.625 15.4688C15.6438 15.5813 15.6625 15.6938 15.6813 15.825C15.7 15.8813 15.7 15.9375 15.7 15.9938V16.0125C15.7 16.0688 15.7188 16.125 15.7188 16.1813C15.7188 16.2563 15.7375 16.3125 15.7375 16.3875V17.175C15.7375 17.2313 15.7188 17.2688 15.7188 17.325V17.3813C15.7188 17.4375 15.7 17.4938 15.7 17.5688C15.6813 17.625 15.6813 17.6813 15.6625 17.7375V17.7563C15.6438 17.8125 15.6438 17.8688 15.625 17.925V17.9438C15.6063 18 15.6063 18.0563 15.5875 18.1125V18.1313L15.5313 18.3V18.3188C15.5125 18.375 15.4938 18.45 15.475 18.5063C15.4563 18.5625 15.4375 18.6188 15.4 18.6938C15.3813 18.75 15.3625 18.825 15.325 18.8813C15.3063 18.9375 15.2688 18.9938 15.25 19.0688C15.2313 19.125 15.1938 19.1813 15.175 19.2375C15.175 19.2563 15.1563 19.275 15.1563 19.275C15.1563 19.275 15.1563 19.2938 15.1375 19.2938C14.7438 20.1 14.1438 20.8125 13.3938 21.375C13.3375 21.4125 13.3 21.45 13.2438 21.4875C13.225 21.5063 13.2063 21.5063 13.2063 21.525C13.1688 21.5625 13.1125 21.5813 13.075 21.6188L13.0938 21.6563C13.1875 21.6375 13.2625 21.6375 13.3563 21.6188C13.525 21.6 13.675 21.5625 13.8438 21.525C13.8813 21.525 13.9375 21.5063 13.975 21.4875C14.0125 21.4875 14.0313 21.4688 14.0688 21.4688C14.1063 21.4688 14.1625 21.45 14.2 21.45C14.2375 21.4313 14.275 21.4313 14.3125 21.4125C14.9313 21.2625 15.5313 21.0563 16.1125 20.8125C15.1188 22.1625 13.8063 23.25 12.2688 23.9625C12.9813 23.9063 13.6938 23.7938 14.3875 23.5875C16.8813 22.8563 18.9813 21.1688 20.2375 18.9C19.975 20.325 19.4125 21.6938 18.5688 22.8938C19.1688 22.5 19.7125 22.0313 20.2188 21.525C21.6063 20.0813 22.525 18.225 22.825 16.2563C23.0313 17.2313 23.1063 18.2438 23.0125 19.2375C27.4938 12.9938 23.3875 6.52502 21.6625 4.81877C21.6625 4.80002 21.6438 4.80002 21.6438 4.78127C21.6438 4.85627 21.6438 4.93127 21.625 5.00627C21.6063 5.15627 21.5875 5.28752 21.5688 5.41877C21.5313 5.55002 21.4938 5.70002 21.4563 5.83127C21.4188 5.96252 21.3625 6.09377 21.3063 6.22502C21.25 6.35627 21.1938 6.48752 21.1188 6.60002C21.0438 6.71252 20.9688 6.84377 20.8938 6.95627C20.8188 7.06877 20.725 7.18127 20.6313 7.29377C20.5375 7.40627 20.4438 7.50002 20.3313 7.61252C20.275 7.66877 20.2188 7.72502 20.1438 7.76252C20.0875 7.80002 20.05 7.83752 19.9938 7.89377C19.8813 7.98752 19.7688 8.06252 19.6375 8.13752C19.525 8.21252 19.3938 8.28752 19.2625 8.34377L18.8688 8.51252C18.7375 8.56878 18.6063 8.60627 18.475 8.64377C18.3438 8.68127 18.1938 8.71877 18.0625 8.73752C17.9125 8.75627 17.7813 8.77502 17.65 8.79377C17.5563 8.79377 17.4438 8.81252 17.35 8.81252C17.2 8.81252 17.0688 8.79377 16.9375 8.79377C16.7875 8.77502 16.6563 8.75627 16.525 8.73752C16.375 8.71877 16.2438 8.68127 16.1125 8.62502C16.2438 8.60627 16.3938 8.60627 16.525 8.56878C16.675 8.55002 16.8063 8.51252 16.9375 8.47503C17.0688 8.43752 17.2188 8.40002 17.3313 8.34377L17.725 8.17502C17.8563 8.11877 17.9688 8.04377 18.1 7.96877C18.2125 7.89377 18.3438 7.80002 18.4563 7.72502C18.5688 7.63127 18.6813 7.53752 18.775 7.44377C18.8875 7.35002 18.9813 7.23752 19.075 7.14377C19.1688 7.03127 19.2625 6.91877 19.3375 6.80627C19.3563 6.78752 19.3563 6.76877 19.375 6.75002C19.4313 6.65627 19.5063 6.54377 19.5625 6.45002C19.6375 6.31877 19.6938 6.20627 19.75 6.07502C19.8063 5.94377 19.8625 5.81252 19.9 5.68127L20.0125 5.28752C20.0313 5.13752 20.0688 5.00627 20.0688 4.87502C20.0875 4.72502 20.0875 4.59377 20.0875 4.46252C20.0875 4.36877 20.0875 4.25627 20.0688 4.16252C20.05 4.01252 20.0313 3.88127 20.0125 3.75002C19.9938 3.60002 19.9563 3.46877 19.9188 3.33752C19.8813 3.20627 19.825 3.07502 19.7875 2.94377C19.7313 2.81252 19.675 2.68127 19.6188 2.56877C19.5438 2.43752 19.4875 2.32502 19.4125 2.19377C19.3375 2.08127 19.2438 1.96877 19.1688 1.85627C19.075 1.74377 18.9813 1.65002 18.8875 1.53752C18.8313 1.48127 18.775 1.42502 18.7188 1.38752C18.4375 1.16252 18.1563 0.975024 17.8563 0.787524C17.8188 0.768774 17.7813 0.750024 17.725 0.731274C17.4813 0.525024 17.2938 0.468774 17.1063 0.393774Z" fill="#DF234F"/>
</svg>
