<svg width="24" height="24" viewBox="0 0 24 24" fill="none" xmlns="http://www.w3.org/2000/svg">
<path d="M12 6.19482C5.67374 6.19482 0.544861 8.79395 0.544861 12C0.544861 15.2061 5.67374 17.8052 12 17.8052C18.3262 17.8052 23.4551 15.2061 23.4551 12C23.4551 8.79395 18.3262 6.19482 12 6.19482ZM9.0193 13.131C8.74592 13.3868 8.44236 13.4923 8.10805 13.6011C7.77374 13.71 7.3483 13.6875 6.83099 13.6875H5.65855L5.33361 15.5625H3.96467L5.18624 9.18751H7.81874C8.61074 9.18751 9.18843 9.41532 9.55161 9.83101C9.9148 10.2467 10.0239 10.8368 9.87917 11.5817C9.81936 11.8886 9.71867 12.174 9.57655 12.4283C9.42927 12.6906 9.24117 12.9278 9.0193 13.131ZM13.0151 13.6875L13.5553 10.9838C13.6168 10.6673 13.5943 10.4321 13.4876 10.3172C13.3807 10.2021 13.1535 10.125 12.8061 10.125H11.7204L11.0209 13.6875H9.66261L10.8842 7.50001H12.2424L11.9177 9.18751H13.1276C13.889 9.18751 14.4141 9.34032 14.703 9.60582C14.9919 9.87132 15.0786 10.2351 14.963 10.8298L14.3947 13.6875H13.0151ZM20.5637 11.5916C20.504 11.8986 20.4032 12.1791 20.2612 12.4331C20.1191 12.6876 19.9335 12.9203 19.7042 13.131C19.4308 13.3868 19.127 13.4923 18.7929 13.6011C18.4588 13.71 18.033 13.6875 17.5157 13.6875H16.3432L16.0185 15.5625H14.6495L15.8709 9.18751H18.5036C19.2956 9.18751 19.8733 9.41532 20.2363 9.83101C20.5991 10.2467 20.7084 10.8469 20.5637 11.5916ZM17.9848 10.125H17.0471L16.5358 12.75H17.3687C17.9203 12.75 18.3317 12.6956 18.6017 12.4875C18.872 12.2798 19.0541 11.9573 19.1488 11.4711C19.2395 11.004 19.1983 10.6397 19.0251 10.4477C18.8516 10.2557 18.5049 10.125 17.9848 10.125ZM7.30011 10.125H6.36224L5.85092 12.75H6.68361C7.23542 12.75 7.64661 12.6956 7.9168 12.4875C8.18699 12.2798 8.36924 11.9573 8.46374 11.4711C8.55449 11.004 8.51324 10.6397 8.33999 10.4477C8.16674 10.2557 7.82024 10.125 7.30011 10.125Z" fill="#6181B6"/>
</svg>
