<svg width="24" height="24" viewBox="0 0 24 24" fill="none" xmlns="http://www.w3.org/2000/svg">
<path d="M11.8858 2.29647C11.0942 2.30022 10.3386 2.36754 9.67332 2.48529C7.71394 2.83141 7.35844 3.55591 7.35844 4.89223V6.65679H11.9884V7.24498H5.62069C4.27519 7.24498 3.09694 8.05366 2.72832 9.59266C2.30307 11.3561 2.28432 12.4567 2.72832 14.2982C3.05738 15.669 3.84338 16.6455 5.18907 16.6455H6.78113V14.5301C6.78113 13.0018 8.10319 11.6539 9.67351 11.6539H14.2982C15.5856 11.6539 16.6131 10.5937 16.6131 9.3011V4.89241C16.6131 3.63748 15.5544 2.69491 14.2982 2.48547C13.5024 2.3531 12.6773 2.29291 11.8858 2.29647ZM9.38194 3.71566C9.86007 3.71566 10.2508 4.1126 10.2508 4.60085C10.2508 5.08704 9.86026 5.48023 9.38194 5.48023C8.90194 5.48023 8.51326 5.08704 8.51326 4.60085C8.51307 4.1126 8.90194 3.71566 9.38194 3.71566Z" fill="url(#paint0_linear_91_305)"/>
<path d="M17.1904 7.245V9.30112C17.1904 10.8949 15.8389 12.2364 14.298 12.2364H9.6733C8.40655 12.2364 7.35843 13.3208 7.35843 14.5894V18.9984C7.35843 20.253 8.4493 20.9912 9.6733 21.351C11.1388 21.7817 12.5443 21.8597 14.298 21.351C15.4635 21.0133 16.6129 20.3342 16.6129 18.9984V17.2337H11.9884V16.6453H18.9281C20.2736 16.6453 20.7754 15.7069 21.2434 14.298C21.7267 12.8477 21.7059 11.4529 21.2434 9.5925C20.9107 8.25281 20.2757 7.24481 18.9281 7.24481H17.1904V7.245ZM14.5892 18.4101C15.0694 18.4101 15.4581 18.8033 15.4581 19.2898C15.4581 19.7777 15.0692 20.1746 14.5892 20.1746C14.1111 20.1746 13.7205 19.7777 13.7205 19.2898C13.7205 18.8033 14.1111 18.4101 14.5892 18.4101Z" fill="url(#paint1_linear_91_305)"/>
<path opacity="0.444" d="M18.2454 22.4244C18.2454 23.0888 15.4674 23.6274 12.0409 23.6274C8.61412 23.6274 5.83612 23.0888 5.83612 22.4244C5.83612 21.7599 8.61393 21.2213 12.0409 21.2213C15.4674 21.2213 18.2454 21.7598 18.2454 22.4244Z" fill="url(#paint2_radial_91_305)"/>
<defs>
<linearGradient id="paint0_linear_91_305" x1="1.93817" y1="2.84822" x2="12.617" y2="11.9551" gradientUnits="userSpaceOnUse">
<stop stop-color="#5A9FD4"/>
<stop offset="1" stop-color="#306998"/>
</linearGradient>
<linearGradient id="paint1_linear_91_305" x1="16.6348" y1="17.6161" x2="12.8052" y2="12.2457" gradientUnits="userSpaceOnUse">
<stop stop-color="#FFD43B"/>
<stop offset="1" stop-color="#FFE873"/>
</linearGradient>
<radialGradient id="paint2_radial_91_305" cx="0" cy="0" r="1" gradientUnits="userSpaceOnUse" gradientTransform="translate(12.0158 22.39) rotate(-90) scale(1.20343 5.2901)">
<stop stop-color="#B8B8B8" stop-opacity="0.498"/>
<stop offset="1" stop-color="#7F7F7F" stop-opacity="0"/>
</radialGradient>
</defs>
</svg>
