<svg width="24" height="24" viewBox="0 0 24 24" fill="none" xmlns="http://www.w3.org/2000/svg">
<path d="M11.9644 0.192444L0.853729 4.10257L2.60929 18.6595L11.9762 23.8077L21.3914 18.5899L23.1464 4.03338L11.9644 0.192444Z" fill="#B3B3B3"/>
<path d="M22.038 4.87461L11.9385 1.43042V22.5776L20.4024 17.8933L22.038 4.87461Z" fill="#A6120D"/>
<path d="M2.10019 4.93668L3.60506 17.9556L11.9383 22.5776V1.43005L2.10019 4.93668Z" fill="#DD1B16"/>
<path d="M14.7186 12.6881L11.9385 13.9882H9.00828L7.63072 17.4333L5.06891 17.4809L11.9385 2.19818L14.7186 12.6881ZM14.4497 12.0335L11.9569 7.09831L9.91203 11.9486H11.9383L14.4497 12.0335Z" fill="#F2F2F2"/>
<path d="M11.9383 2.19818L11.9567 7.09831L14.277 11.9523H11.9434L11.9383 13.985L15.165 13.9882L16.6729 17.4813L19.1242 17.5267L11.9383 2.19818Z" fill="#B3B3B3"/>
</svg>
