<svg width="24" height="24" viewBox="0 0 24 24" fill="none" xmlns="http://www.w3.org/2000/svg">
<path d="M16.7314 1.09801H15.3469L16.7867 2.66044V3.40426H13.8212V2.53332H15.2608L13.8212 0.970881V0.226318H16.7314V1.09801ZM13.2332 1.09801H11.8487L13.2885 2.66044V3.40426H10.3228V2.53332H11.7626L10.3228 0.970881V0.226318H13.2332V1.09801ZM9.76931 1.13363H8.27531V2.49694H9.76931V3.40426H7.21331V0.226318H9.76931V1.13363Z" fill="#131313"/>
<path d="M5.17746 21.8823L3.65927 4.85486H20.3406L18.8211 21.8795L11.9897 23.7736L5.17746 21.8823Z" fill="#1572B6"/>
<path d="M12.0002 22.3261L17.52 20.7957L18.8186 6.24738H12.0002V22.3261Z" fill="#33A9DC"/>
<path d="M12 12.4163H14.7634L14.9544 10.2778H12V8.18945H17.2367L17.1866 8.7497L16.6734 14.5045H12V12.4163Z" fill="white"/>
<path d="M12.0126 17.8398L12.0034 17.8425L9.67765 17.2143L9.52877 15.5488H7.43271L7.7254 18.8278L12.003 20.0152L12.0128 20.0124V17.8398H12.0126Z" fill="#EBEBEB"/>
<path d="M14.586 14.4161L14.3343 17.2128L12.0052 17.8415V20.0143L16.2864 18.8278L16.3179 18.4749L16.6813 14.4161H14.586Z" fill="white"/>
<path d="M12.0073 8.18945V10.2776H6.963L6.921 9.80833L6.82594 8.7497L6.77588 8.18945H12.0073ZM12 12.4165V14.5048H9.70369L9.66188 14.0355L9.56663 12.9767L9.51657 12.4165H12Z" fill="#EBEBEB"/>
</svg>
